G04 #@! TF.GenerationSoftware,KiCad,Pcbnew,(5.1.6-0-10_14)*
G04 #@! TF.CreationDate,2020-11-17T18:44:15+01:00*
G04 #@! TF.ProjectId,ProStick64_PCB_v6,50726f53-7469-4636-9b36-345f5043425f,rev?*
G04 #@! TF.SameCoordinates,Original*
G04 #@! TF.FileFunction,Copper,L4,Bot*
G04 #@! TF.FilePolarity,Positive*
%FSLAX46Y46*%
G04 Gerber Fmt 4.6, Leading zero omitted, Abs format (unit mm)*
G04 Created by KiCad (PCBNEW (5.1.6-0-10_14)) date 2020-11-17 18:44:15*
%MOMM*%
%LPD*%
G01*
G04 APERTURE LIST*
G04 #@! TA.AperFunction,ComponentPad*
%ADD10R,1.700000X1.700000*%
G04 #@! TD*
G04 #@! TA.AperFunction,ComponentPad*
%ADD11O,1.700000X1.700000*%
G04 #@! TD*
G04 #@! TA.AperFunction,ComponentPad*
%ADD12C,1.650000*%
G04 #@! TD*
G04 #@! TA.AperFunction,ComponentPad*
%ADD13C,2.400000*%
G04 #@! TD*
G04 #@! TA.AperFunction,SMDPad,CuDef*
%ADD14R,1.000000X1.000000*%
G04 #@! TD*
G04 #@! TA.AperFunction,ComponentPad*
%ADD15R,1.350000X1.350000*%
G04 #@! TD*
G04 #@! TA.AperFunction,ComponentPad*
%ADD16O,1.350000X1.350000*%
G04 #@! TD*
G04 #@! TA.AperFunction,SMDPad,CuDef*
%ADD17R,1.538199X0.568000*%
G04 #@! TD*
G04 #@! TA.AperFunction,SMDPad,CuDef*
%ADD18R,0.568000X1.538199*%
G04 #@! TD*
G04 #@! TA.AperFunction,SMDPad,CuDef*
%ADD19C,0.100000*%
G04 #@! TD*
G04 #@! TA.AperFunction,SMDPad,CuDef*
%ADD20R,0.650000X1.560000*%
G04 #@! TD*
G04 #@! TA.AperFunction,ViaPad*
%ADD21C,1.000000*%
G04 #@! TD*
G04 #@! TA.AperFunction,ViaPad*
%ADD22C,0.600000*%
G04 #@! TD*
G04 #@! TA.AperFunction,Conductor*
%ADD23C,1.000000*%
G04 #@! TD*
G04 #@! TA.AperFunction,Conductor*
%ADD24C,0.500000*%
G04 #@! TD*
G04 #@! TA.AperFunction,Conductor*
%ADD25C,0.250000*%
G04 #@! TD*
G04 APERTURE END LIST*
D10*
X133000000Y-67500000D03*
D11*
X133000000Y-70040000D03*
X133000000Y-72580000D03*
X133000000Y-75120000D03*
X133000000Y-77660000D03*
X133000000Y-80200000D03*
D12*
X155775000Y-77559000D03*
X143525000Y-65309000D03*
X155775000Y-75059000D03*
X146025000Y-65309000D03*
X155775000Y-72559000D03*
X148525000Y-65309000D03*
D13*
X138275000Y-68409000D03*
X138275000Y-81709000D03*
X153775000Y-81709000D03*
X153775000Y-68409000D03*
D10*
X159800000Y-81700000D03*
D11*
X159800000Y-79160000D03*
X159800000Y-76620000D03*
G04 #@! TA.AperFunction,SMDPad,CuDef*
G36*
G01*
X153375000Y-70108999D02*
X153375000Y-71009001D01*
G75*
G02*
X153125001Y-71259000I-249999J0D01*
G01*
X152474999Y-71259000D01*
G75*
G02*
X152225000Y-71009001I0J249999D01*
G01*
X152225000Y-70108999D01*
G75*
G02*
X152474999Y-69859000I249999J0D01*
G01*
X153125001Y-69859000D01*
G75*
G02*
X153375000Y-70108999I0J-249999D01*
G01*
G37*
G04 #@! TD.AperFunction*
G04 #@! TA.AperFunction,SMDPad,CuDef*
G36*
G01*
X151325000Y-70108999D02*
X151325000Y-71009001D01*
G75*
G02*
X151075001Y-71259000I-249999J0D01*
G01*
X150424999Y-71259000D01*
G75*
G02*
X150175000Y-71009001I0J249999D01*
G01*
X150175000Y-70108999D01*
G75*
G02*
X150424999Y-69859000I249999J0D01*
G01*
X151075001Y-69859000D01*
G75*
G02*
X151325000Y-70108999I0J-249999D01*
G01*
G37*
G04 #@! TD.AperFunction*
G04 #@! TA.AperFunction,SMDPad,CuDef*
G36*
G01*
X149650000Y-64300000D02*
X149650000Y-63200000D01*
G75*
G02*
X149900000Y-62950000I250000J0D01*
G01*
X152000000Y-62950000D01*
G75*
G02*
X152250000Y-63200000I0J-250000D01*
G01*
X152250000Y-64300000D01*
G75*
G02*
X152000000Y-64550000I-250000J0D01*
G01*
X149900000Y-64550000D01*
G75*
G02*
X149650000Y-64300000I0J250000D01*
G01*
G37*
G04 #@! TD.AperFunction*
G04 #@! TA.AperFunction,SMDPad,CuDef*
G36*
G01*
X153250000Y-64300000D02*
X153250000Y-63200000D01*
G75*
G02*
X153500000Y-62950000I250000J0D01*
G01*
X155600000Y-62950000D01*
G75*
G02*
X155850000Y-63200000I0J-250000D01*
G01*
X155850000Y-64300000D01*
G75*
G02*
X155600000Y-64550000I-250000J0D01*
G01*
X153500000Y-64550000D01*
G75*
G02*
X153250000Y-64300000I0J250000D01*
G01*
G37*
G04 #@! TD.AperFunction*
G04 #@! TA.AperFunction,SMDPad,CuDef*
G36*
G01*
X150074999Y-68259000D02*
X150975001Y-68259000D01*
G75*
G02*
X151225000Y-68508999I0J-249999D01*
G01*
X151225000Y-69159001D01*
G75*
G02*
X150975001Y-69409000I-249999J0D01*
G01*
X150074999Y-69409000D01*
G75*
G02*
X149825000Y-69159001I0J249999D01*
G01*
X149825000Y-68508999D01*
G75*
G02*
X150074999Y-68259000I249999J0D01*
G01*
G37*
G04 #@! TD.AperFunction*
G04 #@! TA.AperFunction,SMDPad,CuDef*
G36*
G01*
X150074999Y-66209000D02*
X150975001Y-66209000D01*
G75*
G02*
X151225000Y-66458999I0J-249999D01*
G01*
X151225000Y-67109001D01*
G75*
G02*
X150975001Y-67359000I-249999J0D01*
G01*
X150074999Y-67359000D01*
G75*
G02*
X149825000Y-67109001I0J249999D01*
G01*
X149825000Y-66458999D01*
G75*
G02*
X150074999Y-66209000I249999J0D01*
G01*
G37*
G04 #@! TD.AperFunction*
G04 #@! TA.AperFunction,SMDPad,CuDef*
G36*
G01*
X158050000Y-68000000D02*
X156950000Y-68000000D01*
G75*
G02*
X156700000Y-67750000I0J250000D01*
G01*
X156700000Y-65650000D01*
G75*
G02*
X156950000Y-65400000I250000J0D01*
G01*
X158050000Y-65400000D01*
G75*
G02*
X158300000Y-65650000I0J-250000D01*
G01*
X158300000Y-67750000D01*
G75*
G02*
X158050000Y-68000000I-250000J0D01*
G01*
G37*
G04 #@! TD.AperFunction*
G04 #@! TA.AperFunction,SMDPad,CuDef*
G36*
G01*
X158050000Y-71600000D02*
X156950000Y-71600000D01*
G75*
G02*
X156700000Y-71350000I0J250000D01*
G01*
X156700000Y-69250000D01*
G75*
G02*
X156950000Y-69000000I250000J0D01*
G01*
X158050000Y-69000000D01*
G75*
G02*
X158300000Y-69250000I0J-250000D01*
G01*
X158300000Y-71350000D01*
G75*
G02*
X158050000Y-71600000I-250000J0D01*
G01*
G37*
G04 #@! TD.AperFunction*
G04 #@! TA.AperFunction,SMDPad,CuDef*
G36*
G01*
X152450001Y-84075001D02*
X151549999Y-84075001D01*
G75*
G02*
X151300000Y-83825002I0J249999D01*
G01*
X151300000Y-83175000D01*
G75*
G02*
X151549999Y-82925001I249999J0D01*
G01*
X152450001Y-82925001D01*
G75*
G02*
X152700000Y-83175000I0J-249999D01*
G01*
X152700000Y-83825002D01*
G75*
G02*
X152450001Y-84075001I-249999J0D01*
G01*
G37*
G04 #@! TD.AperFunction*
G04 #@! TA.AperFunction,SMDPad,CuDef*
G36*
G01*
X152450001Y-82025001D02*
X151549999Y-82025001D01*
G75*
G02*
X151300000Y-81775002I0J249999D01*
G01*
X151300000Y-81125000D01*
G75*
G02*
X151549999Y-80875001I249999J0D01*
G01*
X152450001Y-80875001D01*
G75*
G02*
X152700000Y-81125000I0J-249999D01*
G01*
X152700000Y-81775002D01*
G75*
G02*
X152450001Y-82025001I-249999J0D01*
G01*
G37*
G04 #@! TD.AperFunction*
G04 #@! TA.AperFunction,SMDPad,CuDef*
G36*
G01*
X139499999Y-80136396D02*
X140136396Y-79499999D01*
G75*
G02*
X140489948Y-79499999I176776J-176776D01*
G01*
X140949569Y-79959620D01*
G75*
G02*
X140949569Y-80313172I-176776J-176776D01*
G01*
X140313172Y-80949569D01*
G75*
G02*
X139959620Y-80949569I-176776J176776D01*
G01*
X139499999Y-80489948D01*
G75*
G02*
X139499999Y-80136396I176776J176776D01*
G01*
G37*
G04 #@! TD.AperFunction*
G04 #@! TA.AperFunction,SMDPad,CuDef*
G36*
G01*
X138050431Y-78686828D02*
X138686828Y-78050431D01*
G75*
G02*
X139040380Y-78050431I176776J-176776D01*
G01*
X139500001Y-78510052D01*
G75*
G02*
X139500001Y-78863604I-176776J-176776D01*
G01*
X138863604Y-79500001D01*
G75*
G02*
X138510052Y-79500001I-176776J176776D01*
G01*
X138050431Y-79040380D01*
G75*
G02*
X138050431Y-78686828I176776J176776D01*
G01*
G37*
G04 #@! TD.AperFunction*
G04 #@! TA.AperFunction,SMDPad,CuDef*
G36*
G01*
X156549999Y-78900000D02*
X157450001Y-78900000D01*
G75*
G02*
X157700000Y-79149999I0J-249999D01*
G01*
X157700000Y-79800001D01*
G75*
G02*
X157450001Y-80050000I-249999J0D01*
G01*
X156549999Y-80050000D01*
G75*
G02*
X156300000Y-79800001I0J249999D01*
G01*
X156300000Y-79149999D01*
G75*
G02*
X156549999Y-78900000I249999J0D01*
G01*
G37*
G04 #@! TD.AperFunction*
G04 #@! TA.AperFunction,SMDPad,CuDef*
G36*
G01*
X156549999Y-80950000D02*
X157450001Y-80950000D01*
G75*
G02*
X157700000Y-81199999I0J-249999D01*
G01*
X157700000Y-81850001D01*
G75*
G02*
X157450001Y-82100000I-249999J0D01*
G01*
X156549999Y-82100000D01*
G75*
G02*
X156300000Y-81850001I0J249999D01*
G01*
X156300000Y-81199999D01*
G75*
G02*
X156549999Y-80950000I249999J0D01*
G01*
G37*
G04 #@! TD.AperFunction*
D14*
X137500000Y-74750000D03*
X137500000Y-77250000D03*
X135500000Y-77250000D03*
X135500000Y-74750000D03*
D15*
X142025000Y-62059000D03*
D16*
X140025000Y-62059000D03*
X138025000Y-62059000D03*
X136025000Y-62059000D03*
X134025000Y-62059000D03*
X132025000Y-62059000D03*
G04 #@! TA.AperFunction,SMDPad,CuDef*
G36*
G01*
X143900000Y-83950001D02*
X143900000Y-83049999D01*
G75*
G02*
X144149999Y-82800000I249999J0D01*
G01*
X144800001Y-82800000D01*
G75*
G02*
X145050000Y-83049999I0J-249999D01*
G01*
X145050000Y-83950001D01*
G75*
G02*
X144800001Y-84200000I-249999J0D01*
G01*
X144149999Y-84200000D01*
G75*
G02*
X143900000Y-83950001I0J249999D01*
G01*
G37*
G04 #@! TD.AperFunction*
G04 #@! TA.AperFunction,SMDPad,CuDef*
G36*
G01*
X145950000Y-83950001D02*
X145950000Y-83049999D01*
G75*
G02*
X146199999Y-82800000I249999J0D01*
G01*
X146850001Y-82800000D01*
G75*
G02*
X147100000Y-83049999I0J-249999D01*
G01*
X147100000Y-83950001D01*
G75*
G02*
X146850001Y-84200000I-249999J0D01*
G01*
X146199999Y-84200000D01*
G75*
G02*
X145950000Y-83950001I0J249999D01*
G01*
G37*
G04 #@! TD.AperFunction*
G04 #@! TA.AperFunction,SMDPad,CuDef*
G36*
G01*
X142450000Y-83950001D02*
X142450000Y-83049999D01*
G75*
G02*
X142699999Y-82800000I249999J0D01*
G01*
X143350001Y-82800000D01*
G75*
G02*
X143600000Y-83049999I0J-249999D01*
G01*
X143600000Y-83950001D01*
G75*
G02*
X143350001Y-84200000I-249999J0D01*
G01*
X142699999Y-84200000D01*
G75*
G02*
X142450000Y-83950001I0J249999D01*
G01*
G37*
G04 #@! TD.AperFunction*
G04 #@! TA.AperFunction,SMDPad,CuDef*
G36*
G01*
X140400000Y-83950001D02*
X140400000Y-83049999D01*
G75*
G02*
X140649999Y-82800000I249999J0D01*
G01*
X141300001Y-82800000D01*
G75*
G02*
X141550000Y-83049999I0J-249999D01*
G01*
X141550000Y-83950001D01*
G75*
G02*
X141300001Y-84200000I-249999J0D01*
G01*
X140649999Y-84200000D01*
G75*
G02*
X140400000Y-83950001I0J249999D01*
G01*
G37*
G04 #@! TD.AperFunction*
G04 #@! TA.AperFunction,SMDPad,CuDef*
G36*
G01*
X157600000Y-83049999D02*
X157600000Y-83950001D01*
G75*
G02*
X157350001Y-84200000I-249999J0D01*
G01*
X156699999Y-84200000D01*
G75*
G02*
X156450000Y-83950001I0J249999D01*
G01*
X156450000Y-83049999D01*
G75*
G02*
X156699999Y-82800000I249999J0D01*
G01*
X157350001Y-82800000D01*
G75*
G02*
X157600000Y-83049999I0J-249999D01*
G01*
G37*
G04 #@! TD.AperFunction*
G04 #@! TA.AperFunction,SMDPad,CuDef*
G36*
G01*
X155550000Y-83049999D02*
X155550000Y-83950001D01*
G75*
G02*
X155300001Y-84200000I-249999J0D01*
G01*
X154649999Y-84200000D01*
G75*
G02*
X154400000Y-83950001I0J249999D01*
G01*
X154400000Y-83049999D01*
G75*
G02*
X154649999Y-82800000I249999J0D01*
G01*
X155300001Y-82800000D01*
G75*
G02*
X155550000Y-83049999I0J-249999D01*
G01*
G37*
G04 #@! TD.AperFunction*
D17*
X143345300Y-66854000D03*
X143345300Y-68124000D03*
X143345300Y-69394000D03*
X143345300Y-70664000D03*
X148704700Y-70664000D03*
X148704700Y-69394000D03*
X148704700Y-68124000D03*
X148704700Y-66854000D03*
D18*
X150420000Y-72379300D03*
X151690000Y-72379300D03*
X152960000Y-72379300D03*
X154230000Y-72379300D03*
X154230000Y-77738700D03*
X152960000Y-77738700D03*
X151690000Y-77738700D03*
X150420000Y-77738700D03*
G04 #@! TA.AperFunction,SMDPad,CuDef*
D19*
G36*
X143547310Y-71669971D02*
G01*
X143941875Y-72064536D01*
X142548876Y-73457535D01*
X142154311Y-73062970D01*
X143547310Y-71669971D01*
G37*
G04 #@! TD.AperFunction*
G04 #@! TA.AperFunction,SMDPad,CuDef*
G36*
X144445335Y-72567997D02*
G01*
X144839900Y-72962562D01*
X143446901Y-74355561D01*
X143052336Y-73960996D01*
X144445335Y-72567997D01*
G37*
G04 #@! TD.AperFunction*
G04 #@! TA.AperFunction,SMDPad,CuDef*
G36*
X145343361Y-73466023D02*
G01*
X145737926Y-73860588D01*
X144344927Y-75253587D01*
X143950362Y-74859022D01*
X145343361Y-73466023D01*
G37*
G04 #@! TD.AperFunction*
G04 #@! TA.AperFunction,SMDPad,CuDef*
G36*
X146241387Y-74364048D02*
G01*
X146635952Y-74758613D01*
X145242953Y-76151612D01*
X144848388Y-75757047D01*
X146241387Y-74364048D01*
G37*
G04 #@! TD.AperFunction*
G04 #@! TA.AperFunction,SMDPad,CuDef*
G36*
X147139412Y-75262074D02*
G01*
X147533977Y-75656639D01*
X146140978Y-77049638D01*
X145746413Y-76655073D01*
X147139412Y-75262074D01*
G37*
G04 #@! TD.AperFunction*
G04 #@! TA.AperFunction,SMDPad,CuDef*
G36*
X148037438Y-76160100D02*
G01*
X148432003Y-76554665D01*
X147039004Y-77947664D01*
X146644439Y-77553099D01*
X148037438Y-76160100D01*
G37*
G04 #@! TD.AperFunction*
G04 #@! TA.AperFunction,SMDPad,CuDef*
G36*
X148935464Y-77058125D02*
G01*
X149330029Y-77452690D01*
X147937030Y-78845689D01*
X147542465Y-78451124D01*
X148935464Y-77058125D01*
G37*
G04 #@! TD.AperFunction*
G04 #@! TA.AperFunction,SMDPad,CuDef*
G36*
X145451124Y-80542465D02*
G01*
X145845689Y-80937030D01*
X144452690Y-82330029D01*
X144058125Y-81935464D01*
X145451124Y-80542465D01*
G37*
G04 #@! TD.AperFunction*
G04 #@! TA.AperFunction,SMDPad,CuDef*
G36*
X144553099Y-79644439D02*
G01*
X144947664Y-80039004D01*
X143554665Y-81432003D01*
X143160100Y-81037438D01*
X144553099Y-79644439D01*
G37*
G04 #@! TD.AperFunction*
G04 #@! TA.AperFunction,SMDPad,CuDef*
G36*
X143655073Y-78746413D02*
G01*
X144049638Y-79140978D01*
X142656639Y-80533977D01*
X142262074Y-80139412D01*
X143655073Y-78746413D01*
G37*
G04 #@! TD.AperFunction*
G04 #@! TA.AperFunction,SMDPad,CuDef*
G36*
X142757047Y-77848388D02*
G01*
X143151612Y-78242953D01*
X141758613Y-79635952D01*
X141364048Y-79241387D01*
X142757047Y-77848388D01*
G37*
G04 #@! TD.AperFunction*
G04 #@! TA.AperFunction,SMDPad,CuDef*
G36*
X141859022Y-76950362D02*
G01*
X142253587Y-77344927D01*
X140860588Y-78737926D01*
X140466023Y-78343361D01*
X141859022Y-76950362D01*
G37*
G04 #@! TD.AperFunction*
G04 #@! TA.AperFunction,SMDPad,CuDef*
G36*
X140960996Y-76052336D02*
G01*
X141355561Y-76446901D01*
X139962562Y-77839900D01*
X139567997Y-77445335D01*
X140960996Y-76052336D01*
G37*
G04 #@! TD.AperFunction*
G04 #@! TA.AperFunction,SMDPad,CuDef*
G36*
X140062970Y-75154311D02*
G01*
X140457535Y-75548876D01*
X139064536Y-76941875D01*
X138669971Y-76547310D01*
X140062970Y-75154311D01*
G37*
G04 #@! TD.AperFunction*
D20*
X150150000Y-83350000D03*
X149200000Y-83350000D03*
X148250000Y-83350000D03*
X148250000Y-80650000D03*
X150150000Y-80650000D03*
D21*
X152960000Y-73859000D03*
D22*
X149400000Y-76800000D03*
X149200000Y-84500000D03*
X141000000Y-85000000D03*
X153300000Y-83800000D03*
X137500000Y-79000000D03*
X137200000Y-70500000D03*
X138400000Y-74380001D03*
X132500000Y-83000000D03*
X153725000Y-79259000D03*
X142200000Y-80700000D03*
X155125000Y-79259000D03*
X145000000Y-79500000D03*
X135500000Y-85000000D03*
X143000000Y-82000000D03*
X146000000Y-82000000D03*
D23*
X154974999Y-66259001D02*
X156017000Y-65217000D01*
X154974999Y-67209001D02*
X154974999Y-66259001D01*
X153775000Y-68409000D02*
X154974999Y-67209001D01*
X156017000Y-65217000D02*
X157500000Y-66700000D01*
X154550000Y-63750000D02*
X156017000Y-65217000D01*
X150525000Y-69059000D02*
X150525000Y-70559000D01*
X153125000Y-69059000D02*
X153775000Y-68409000D01*
X150525000Y-69059000D02*
X153125000Y-69059000D01*
D24*
X152960000Y-73859000D02*
X152960000Y-72379300D01*
X150190000Y-69394000D02*
X150525000Y-69059000D01*
X148704700Y-69394000D02*
X150190000Y-69394000D01*
D25*
X149200000Y-84500000D02*
X149200000Y-83350000D01*
X149400000Y-76988154D02*
X148436247Y-77951907D01*
X149400000Y-76800000D02*
X149400000Y-76988154D01*
D24*
X153775000Y-82300000D02*
X154975000Y-83500000D01*
X153775000Y-81709000D02*
X153775000Y-82300000D01*
X153775000Y-81709000D02*
X152216000Y-81709000D01*
X152258999Y-81709000D02*
X152000000Y-81450001D01*
X153775000Y-81709000D02*
X152258999Y-81709000D01*
X139759216Y-80224784D02*
X138275000Y-81709000D01*
X140224784Y-80224784D02*
X139759216Y-80224784D01*
D25*
X141000000Y-83525000D02*
X140975000Y-83500000D01*
X141000000Y-85000000D02*
X141000000Y-83525000D01*
X150420000Y-76719601D02*
X150420000Y-77738700D01*
X147004787Y-74937064D02*
X148637463Y-74937064D01*
X145441851Y-76500000D02*
X147004787Y-74937064D01*
X143558149Y-76500000D02*
X145441851Y-76500000D01*
X148637463Y-74937064D02*
X150420000Y-76719601D01*
X140956383Y-79101766D02*
X143558149Y-76500000D01*
X138986815Y-80183999D02*
X140069048Y-79101766D01*
X140069048Y-79101766D02*
X140956383Y-79101766D01*
X133016001Y-80183999D02*
X138986815Y-80183999D01*
X133000000Y-80200000D02*
X133016001Y-80183999D01*
X133646000Y-66854000D02*
X133000000Y-67500000D01*
X143345300Y-66854000D02*
X133646000Y-66854000D01*
D24*
X147570000Y-66854000D02*
X146025000Y-65309000D01*
X148704700Y-66854000D02*
X147570000Y-66854000D01*
X154230000Y-73514000D02*
X155775000Y-75059000D01*
X154230000Y-72379300D02*
X154230000Y-73514000D01*
D25*
X159800000Y-82313190D02*
X159800000Y-81700000D01*
X157588180Y-84525010D02*
X159800000Y-82313190D01*
X151325010Y-84525010D02*
X157588180Y-84525010D01*
X150150000Y-83350000D02*
X151325010Y-84525010D01*
D23*
X155775000Y-72025000D02*
X157500000Y-70300000D01*
X155775000Y-72559000D02*
X155775000Y-72025000D01*
X154941726Y-70559000D02*
X155775000Y-71392274D01*
X155775000Y-71392274D02*
X155775000Y-72559000D01*
X153025000Y-70559000D02*
X154941726Y-70559000D01*
X149275000Y-65309000D02*
X150525000Y-66559000D01*
X148525000Y-65309000D02*
X149275000Y-65309000D01*
X149391000Y-65309000D02*
X150950000Y-63750000D01*
X148525000Y-65309000D02*
X149391000Y-65309000D01*
D24*
X150525000Y-66896802D02*
X150525000Y-66559000D01*
X149297802Y-68124000D02*
X150525000Y-66896802D01*
X148704700Y-68124000D02*
X149297802Y-68124000D01*
X151690000Y-71894000D02*
X153025000Y-70559000D01*
X151690000Y-72379300D02*
X151690000Y-71894000D01*
D25*
X141359805Y-77844144D02*
X140461779Y-76946118D01*
X140461778Y-76946118D02*
X139563753Y-76048093D01*
X140461779Y-76946118D02*
X140461778Y-76946118D01*
X140461779Y-77088653D02*
X140461779Y-76946118D01*
X138775216Y-78775216D02*
X140461779Y-77088653D01*
X149044999Y-81755001D02*
X150150000Y-80650000D01*
X147569999Y-81755001D02*
X149044999Y-81755001D01*
X146525000Y-82800000D02*
X147569999Y-81755001D01*
X146525000Y-83500000D02*
X146525000Y-82800000D01*
X160975001Y-77795001D02*
X159800000Y-76620000D01*
X160975001Y-79724001D02*
X160975001Y-77795001D01*
X160364001Y-80335001D02*
X160975001Y-79724001D01*
X157860001Y-80335001D02*
X160364001Y-80335001D01*
X157000000Y-79475000D02*
X157860001Y-80335001D01*
X150150000Y-81650001D02*
X150150000Y-80650000D01*
X152000000Y-83500001D02*
X150150000Y-81650001D01*
X152299999Y-83800000D02*
X152000000Y-83500001D01*
X153300000Y-83800000D02*
X152299999Y-83800000D01*
X138550432Y-79000000D02*
X138775216Y-78775216D01*
X137500000Y-79000000D02*
X138550432Y-79000000D01*
X155658999Y-80183999D02*
X157000000Y-81525000D01*
X152715988Y-79174990D02*
X153724997Y-80183999D01*
X153724997Y-80183999D02*
X155658999Y-80183999D01*
X149725010Y-79174990D02*
X152715988Y-79174990D01*
X148250000Y-80650000D02*
X149725010Y-79174990D01*
X157025000Y-81550000D02*
X157000000Y-81525000D01*
X157025000Y-83500000D02*
X157025000Y-81550000D01*
X142860201Y-68124000D02*
X142795201Y-68059000D01*
X143345300Y-68124000D02*
X142860201Y-68124000D01*
X142795201Y-68059000D02*
X141025000Y-68059000D01*
X141025000Y-68059000D02*
X139044000Y-70040000D01*
X137200000Y-70100000D02*
X137140000Y-70040000D01*
X137200000Y-70500000D02*
X137200000Y-70100000D01*
X137140000Y-70040000D02*
X133000000Y-70040000D01*
X139044000Y-70040000D02*
X137140000Y-70040000D01*
X138030001Y-74750000D02*
X138400000Y-74380001D01*
X137500000Y-74750000D02*
X138030001Y-74750000D01*
X133914999Y-78835001D02*
X135500000Y-77250000D01*
X132625997Y-78835001D02*
X133914999Y-78835001D01*
X131824999Y-79635999D02*
X132625997Y-78835001D01*
X131824999Y-82324999D02*
X131824999Y-79635999D01*
X132500000Y-83000000D02*
X131824999Y-82324999D01*
X135500000Y-77250000D02*
X137500000Y-77250000D01*
X135500000Y-75160000D02*
X133000000Y-77660000D01*
X135500000Y-74750000D02*
X135500000Y-75160000D01*
X138260001Y-75575001D02*
X136325001Y-75575001D01*
X139005701Y-74829301D02*
X138260001Y-75575001D01*
X136325001Y-75575001D02*
X135500000Y-74750000D01*
X143432796Y-74829301D02*
X139005701Y-74829301D01*
X145121084Y-73141013D02*
X143432796Y-74829301D01*
X148111412Y-73141013D02*
X145121084Y-73141013D01*
X151690000Y-76719601D02*
X148111412Y-73141013D01*
X151690000Y-77738700D02*
X151690000Y-76719601D01*
D24*
X149636000Y-72379300D02*
X150420000Y-72379300D01*
X148704700Y-70664000D02*
X148704700Y-71448000D01*
D25*
X157048999Y-76408999D02*
X158950001Y-78310001D01*
X153430600Y-76408999D02*
X157048999Y-76408999D01*
X158950001Y-78310001D02*
X159800000Y-79160000D01*
X150420000Y-72379300D02*
X150420000Y-73398399D01*
D24*
X148704700Y-71448000D02*
X149636000Y-72379300D01*
D25*
X150420000Y-73398399D02*
X153430600Y-76408999D01*
X152960000Y-78494000D02*
X153725000Y-79259000D01*
X152960000Y-77738700D02*
X152960000Y-78494000D01*
X143155856Y-79640195D02*
X143155856Y-79844144D01*
X143155856Y-79744144D02*
X142200000Y-80700000D01*
X143155856Y-79640195D02*
X143155856Y-79744144D01*
X154230000Y-78364000D02*
X155125000Y-79259000D01*
X154230000Y-77738700D02*
X154230000Y-78364000D01*
X144053882Y-80446118D02*
X145000000Y-79500000D01*
X144053882Y-80538221D02*
X144053882Y-80446118D01*
X131824999Y-66389999D02*
X133155998Y-65059000D01*
X131824999Y-70604001D02*
X131824999Y-66389999D01*
X132435999Y-71215001D02*
X131824999Y-70604001D01*
X141039200Y-71215001D02*
X132435999Y-71215001D01*
X142860201Y-69394000D02*
X141039200Y-71215001D01*
X143345300Y-69394000D02*
X142860201Y-69394000D01*
X135025000Y-65059000D02*
X138025000Y-62059000D01*
X133155998Y-65059000D02*
X135025000Y-65059000D01*
X143946118Y-73461779D02*
X145000000Y-72407897D01*
X145000000Y-72407897D02*
X145000000Y-70000000D01*
X144394000Y-69394000D02*
X143345300Y-69394000D01*
X145000000Y-70000000D02*
X144394000Y-69394000D01*
X131350001Y-62733999D02*
X132025000Y-62059000D01*
X132435999Y-73755001D02*
X131350001Y-72669003D01*
X131350001Y-72669003D02*
X131350001Y-62733999D01*
X139235200Y-73755001D02*
X132435999Y-73755001D01*
X142326201Y-70664000D02*
X139235200Y-73755001D01*
X143345300Y-70664000D02*
X142326201Y-70664000D01*
X143345300Y-72266546D02*
X143048093Y-72563753D01*
X143345300Y-70664000D02*
X143345300Y-72266546D01*
X140886810Y-82000000D02*
X143000000Y-82000000D01*
X137886810Y-85000000D02*
X140886810Y-82000000D01*
X135500000Y-85000000D02*
X137886810Y-85000000D01*
X146450010Y-78142093D02*
X147538221Y-77053882D01*
X146450010Y-81549990D02*
X146450010Y-78142093D01*
X146000000Y-82000000D02*
X146450010Y-81549990D01*
X145500010Y-84525010D02*
X144475000Y-83500000D01*
X148104990Y-84525010D02*
X145500010Y-84525010D01*
X148250000Y-84380000D02*
X148104990Y-84525010D01*
X148250000Y-83350000D02*
X148250000Y-84380000D01*
X144475000Y-83500000D02*
X143025000Y-83500000D01*
X144844145Y-74359805D02*
X145742170Y-75257830D01*
X144844144Y-74359805D02*
X144844145Y-74359805D01*
X146000000Y-80388154D02*
X144951907Y-81436247D01*
X146000000Y-76796051D02*
X146000000Y-80388154D01*
X146640195Y-76155856D02*
X146000000Y-76796051D01*
M02*
