G04 #@! TF.GenerationSoftware,KiCad,Pcbnew,(5.1.6-0-10_14)*
G04 #@! TF.CreationDate,2020-11-17T18:44:15+01:00*
G04 #@! TF.ProjectId,ProStick64_PCB_v6,50726f53-7469-4636-9b36-345f5043425f,rev?*
G04 #@! TF.SameCoordinates,Original*
G04 #@! TF.FileFunction,Legend,Bot*
G04 #@! TF.FilePolarity,Positive*
%FSLAX46Y46*%
G04 Gerber Fmt 4.6, Leading zero omitted, Abs format (unit mm)*
G04 Created by KiCad (PCBNEW (5.1.6-0-10_14)) date 2020-11-17 18:44:15*
%MOMM*%
%LPD*%
G01*
G04 APERTURE LIST*
%ADD10C,0.075000*%
%ADD11C,0.100000*%
%ADD12C,0.120000*%
%ADD13C,0.152400*%
%ADD14C,0.150000*%
%ADD15C,0.125000*%
G04 APERTURE END LIST*
D10*
X154516666Y-85816666D02*
X154516666Y-85116666D01*
X154516666Y-85783333D02*
X154583333Y-85816666D01*
X154716666Y-85816666D01*
X154783333Y-85783333D01*
X154816666Y-85750000D01*
X154850000Y-85683333D01*
X154850000Y-85483333D01*
X154816666Y-85416666D01*
X154783333Y-85383333D01*
X154716666Y-85350000D01*
X154583333Y-85350000D01*
X154516666Y-85383333D01*
X153916666Y-85783333D02*
X153983333Y-85816666D01*
X154116666Y-85816666D01*
X154183333Y-85783333D01*
X154216666Y-85716666D01*
X154216666Y-85450000D01*
X154183333Y-85383333D01*
X154116666Y-85350000D01*
X153983333Y-85350000D01*
X153916666Y-85383333D01*
X153883333Y-85450000D01*
X153883333Y-85516666D01*
X154216666Y-85583333D01*
X153616666Y-85783333D02*
X153550000Y-85816666D01*
X153416666Y-85816666D01*
X153350000Y-85783333D01*
X153316666Y-85716666D01*
X153316666Y-85683333D01*
X153350000Y-85616666D01*
X153416666Y-85583333D01*
X153516666Y-85583333D01*
X153583333Y-85550000D01*
X153616666Y-85483333D01*
X153616666Y-85450000D01*
X153583333Y-85383333D01*
X153516666Y-85350000D01*
X153416666Y-85350000D01*
X153350000Y-85383333D01*
X153016666Y-85816666D02*
X153016666Y-85350000D01*
X153016666Y-85116666D02*
X153050000Y-85150000D01*
X153016666Y-85183333D01*
X152983333Y-85150000D01*
X153016666Y-85116666D01*
X153016666Y-85183333D01*
X152383333Y-85350000D02*
X152383333Y-85916666D01*
X152416666Y-85983333D01*
X152450000Y-86016666D01*
X152516666Y-86050000D01*
X152616666Y-86050000D01*
X152683333Y-86016666D01*
X152383333Y-85783333D02*
X152450000Y-85816666D01*
X152583333Y-85816666D01*
X152650000Y-85783333D01*
X152683333Y-85750000D01*
X152716666Y-85683333D01*
X152716666Y-85483333D01*
X152683333Y-85416666D01*
X152650000Y-85383333D01*
X152583333Y-85350000D01*
X152450000Y-85350000D01*
X152383333Y-85383333D01*
X152050000Y-85350000D02*
X152050000Y-85816666D01*
X152050000Y-85416666D02*
X152016666Y-85383333D01*
X151950000Y-85350000D01*
X151850000Y-85350000D01*
X151783333Y-85383333D01*
X151750000Y-85450000D01*
X151750000Y-85816666D01*
X151150000Y-85783333D02*
X151216666Y-85816666D01*
X151350000Y-85816666D01*
X151416666Y-85783333D01*
X151450000Y-85716666D01*
X151450000Y-85450000D01*
X151416666Y-85383333D01*
X151350000Y-85350000D01*
X151216666Y-85350000D01*
X151150000Y-85383333D01*
X151116666Y-85450000D01*
X151116666Y-85516666D01*
X151450000Y-85583333D01*
X150516666Y-85816666D02*
X150516666Y-85116666D01*
X150516666Y-85783333D02*
X150583333Y-85816666D01*
X150716666Y-85816666D01*
X150783333Y-85783333D01*
X150816666Y-85750000D01*
X150850000Y-85683333D01*
X150850000Y-85483333D01*
X150816666Y-85416666D01*
X150783333Y-85383333D01*
X150716666Y-85350000D01*
X150583333Y-85350000D01*
X150516666Y-85383333D01*
X149650000Y-85816666D02*
X149650000Y-85116666D01*
X149650000Y-85383333D02*
X149583333Y-85350000D01*
X149450000Y-85350000D01*
X149383333Y-85383333D01*
X149350000Y-85416666D01*
X149316666Y-85483333D01*
X149316666Y-85683333D01*
X149350000Y-85750000D01*
X149383333Y-85783333D01*
X149450000Y-85816666D01*
X149583333Y-85816666D01*
X149650000Y-85783333D01*
X149083333Y-85350000D02*
X148916666Y-85816666D01*
X148750000Y-85350000D02*
X148916666Y-85816666D01*
X148983333Y-85983333D01*
X149016666Y-86016666D01*
X149083333Y-86050000D01*
X147950000Y-85816666D02*
X147950000Y-85116666D01*
X147483333Y-85116666D02*
X147350000Y-85116666D01*
X147283333Y-85150000D01*
X147216666Y-85216666D01*
X147183333Y-85350000D01*
X147183333Y-85583333D01*
X147216666Y-85716666D01*
X147283333Y-85783333D01*
X147350000Y-85816666D01*
X147483333Y-85816666D01*
X147550000Y-85783333D01*
X147616666Y-85716666D01*
X147650000Y-85583333D01*
X147650000Y-85350000D01*
X147616666Y-85216666D01*
X147550000Y-85150000D01*
X147483333Y-85116666D01*
X146483333Y-85816666D02*
X146716666Y-85483333D01*
X146883333Y-85816666D02*
X146883333Y-85116666D01*
X146616666Y-85116666D01*
X146550000Y-85150000D01*
X146516666Y-85183333D01*
X146483333Y-85250000D01*
X146483333Y-85350000D01*
X146516666Y-85416666D01*
X146550000Y-85450000D01*
X146616666Y-85483333D01*
X146883333Y-85483333D01*
X146183333Y-85816666D02*
X146183333Y-85116666D01*
X144983333Y-85816666D02*
X145316666Y-85816666D01*
X145316666Y-85116666D01*
X144616666Y-85116666D02*
X144483333Y-85116666D01*
X144416666Y-85150000D01*
X144350000Y-85216666D01*
X144316666Y-85350000D01*
X144316666Y-85583333D01*
X144350000Y-85716666D01*
X144416666Y-85783333D01*
X144483333Y-85816666D01*
X144616666Y-85816666D01*
X144683333Y-85783333D01*
X144750000Y-85716666D01*
X144783333Y-85583333D01*
X144783333Y-85350000D01*
X144750000Y-85216666D01*
X144683333Y-85150000D01*
X144616666Y-85116666D01*
X143616666Y-85816666D02*
X143850000Y-85483333D01*
X144016666Y-85816666D02*
X144016666Y-85116666D01*
X143750000Y-85116666D01*
X143683333Y-85150000D01*
X143650000Y-85183333D01*
X143616666Y-85250000D01*
X143616666Y-85350000D01*
X143650000Y-85416666D01*
X143683333Y-85450000D01*
X143750000Y-85483333D01*
X144016666Y-85483333D01*
X143316666Y-85450000D02*
X143083333Y-85450000D01*
X142983333Y-85816666D02*
X143316666Y-85816666D01*
X143316666Y-85116666D01*
X142983333Y-85116666D01*
X142683333Y-85816666D02*
X142683333Y-85116666D01*
X142283333Y-85816666D01*
X142283333Y-85116666D01*
X142016666Y-85116666D02*
X141550000Y-85116666D01*
X142016666Y-85816666D01*
X141550000Y-85816666D01*
X141150000Y-85116666D02*
X141016666Y-85116666D01*
X140950000Y-85150000D01*
X140883333Y-85216666D01*
X140850000Y-85350000D01*
X140850000Y-85583333D01*
X140883333Y-85716666D01*
X140950000Y-85783333D01*
X141016666Y-85816666D01*
X141150000Y-85816666D01*
X141216666Y-85783333D01*
X141283333Y-85716666D01*
X141316666Y-85583333D01*
X141316666Y-85350000D01*
X141283333Y-85216666D01*
X141216666Y-85150000D01*
X141150000Y-85116666D01*
X140016666Y-85816666D02*
X140016666Y-85350000D01*
X140016666Y-85116666D02*
X140050000Y-85150000D01*
X140016666Y-85183333D01*
X139983333Y-85150000D01*
X140016666Y-85116666D01*
X140016666Y-85183333D01*
X139683333Y-85350000D02*
X139683333Y-85816666D01*
X139683333Y-85416666D02*
X139650000Y-85383333D01*
X139583333Y-85350000D01*
X139483333Y-85350000D01*
X139416666Y-85383333D01*
X139383333Y-85450000D01*
X139383333Y-85816666D01*
X138550000Y-85183333D02*
X138516666Y-85150000D01*
X138450000Y-85116666D01*
X138283333Y-85116666D01*
X138216666Y-85150000D01*
X138183333Y-85183333D01*
X138150000Y-85250000D01*
X138150000Y-85316666D01*
X138183333Y-85416666D01*
X138583333Y-85816666D01*
X138150000Y-85816666D01*
X137716666Y-85116666D02*
X137650000Y-85116666D01*
X137583333Y-85150000D01*
X137550000Y-85183333D01*
X137516666Y-85250000D01*
X137483333Y-85383333D01*
X137483333Y-85550000D01*
X137516666Y-85683333D01*
X137550000Y-85750000D01*
X137583333Y-85783333D01*
X137650000Y-85816666D01*
X137716666Y-85816666D01*
X137783333Y-85783333D01*
X137816666Y-85750000D01*
X137850000Y-85683333D01*
X137883333Y-85550000D01*
X137883333Y-85383333D01*
X137850000Y-85250000D01*
X137816666Y-85183333D01*
X137783333Y-85150000D01*
X137716666Y-85116666D01*
X137216666Y-85183333D02*
X137183333Y-85150000D01*
X137116666Y-85116666D01*
X136950000Y-85116666D01*
X136883333Y-85150000D01*
X136850000Y-85183333D01*
X136816666Y-85250000D01*
X136816666Y-85316666D01*
X136850000Y-85416666D01*
X137250000Y-85816666D01*
X136816666Y-85816666D01*
X136383333Y-85116666D02*
X136316666Y-85116666D01*
X136250000Y-85150000D01*
X136216666Y-85183333D01*
X136183333Y-85250000D01*
X136150000Y-85383333D01*
X136150000Y-85550000D01*
X136183333Y-85683333D01*
X136216666Y-85750000D01*
X136250000Y-85783333D01*
X136316666Y-85816666D01*
X136383333Y-85816666D01*
X136450000Y-85783333D01*
X136483333Y-85750000D01*
X136516666Y-85683333D01*
X136550000Y-85550000D01*
X136550000Y-85383333D01*
X136516666Y-85250000D01*
X136483333Y-85183333D01*
X136450000Y-85150000D01*
X136383333Y-85116666D01*
D11*
X131904761Y-63476190D02*
X132000000Y-63476190D01*
X132047619Y-63500000D01*
X132071428Y-63523809D01*
X132119047Y-63595238D01*
X132142857Y-63690476D01*
X132142857Y-63880952D01*
X132119047Y-63928571D01*
X132095238Y-63952380D01*
X132047619Y-63976190D01*
X131952380Y-63976190D01*
X131904761Y-63952380D01*
X131880952Y-63928571D01*
X131857142Y-63880952D01*
X131857142Y-63761904D01*
X131880952Y-63714285D01*
X131904761Y-63690476D01*
X131952380Y-63666666D01*
X132047619Y-63666666D01*
X132095238Y-63690476D01*
X132119047Y-63714285D01*
X132142857Y-63761904D01*
X141857142Y-63826190D02*
X142142857Y-63826190D01*
X142000000Y-63826190D02*
X142000000Y-63326190D01*
X142047619Y-63397619D01*
X142095238Y-63445238D01*
X142142857Y-63469047D01*
D12*
X152036252Y-71269000D02*
X151513748Y-71269000D01*
X152036252Y-69849000D02*
X151513748Y-69849000D01*
X150000000Y-65560000D02*
X150000000Y-65060000D01*
X149750000Y-65310000D02*
X150250000Y-65310000D01*
X150490000Y-62554437D02*
X151554437Y-61490000D01*
X150490000Y-64945563D02*
X151554437Y-66010000D01*
X150490000Y-64945563D02*
X150490000Y-64810000D01*
X150490000Y-62554437D02*
X150490000Y-62690000D01*
X151554437Y-61490000D02*
X155010000Y-61490000D01*
X151554437Y-66010000D02*
X155010000Y-66010000D01*
X155010000Y-66010000D02*
X155010000Y-64810000D01*
X155010000Y-61490000D02*
X155010000Y-62690000D01*
X149815000Y-67547748D02*
X149815000Y-68070252D01*
X151235000Y-67547748D02*
X151235000Y-68070252D01*
X155240000Y-66240000D02*
X156440000Y-66240000D01*
X159760000Y-66240000D02*
X158560000Y-66240000D01*
X159760000Y-69695563D02*
X159760000Y-66240000D01*
X155240000Y-69695563D02*
X155240000Y-66240000D01*
X156304437Y-70760000D02*
X156440000Y-70760000D01*
X158695563Y-70760000D02*
X158560000Y-70760000D01*
X158695563Y-70760000D02*
X159760000Y-69695563D01*
X156304437Y-70760000D02*
X155240000Y-69695563D01*
X159060000Y-71500000D02*
X159060000Y-71000000D01*
X159310000Y-71250000D02*
X158810000Y-71250000D01*
X151290000Y-82736253D02*
X151290000Y-82213749D01*
X152710000Y-82736253D02*
X152710000Y-82213749D01*
X138813221Y-79817313D02*
X139182687Y-80186779D01*
X139817313Y-78813221D02*
X140186779Y-79182687D01*
X157710000Y-80238748D02*
X157710000Y-80761252D01*
X156290000Y-80238748D02*
X156290000Y-80761252D01*
X136650000Y-74100000D02*
X136650000Y-77250000D01*
X138350000Y-74100000D02*
X138350000Y-77250000D01*
X136650000Y-74100000D02*
X138350000Y-74100000D01*
X134650000Y-74100000D02*
X136350000Y-74100000D01*
X136350000Y-74100000D02*
X136350000Y-77250000D01*
X134650000Y-74100000D02*
X134650000Y-77250000D01*
X143085000Y-63119000D02*
X143085000Y-62059000D01*
X142025000Y-63119000D02*
X143085000Y-63119000D01*
X141025000Y-63119000D02*
X141025000Y-60999000D01*
X141025000Y-60999000D02*
X130965000Y-60999000D01*
X141025000Y-63119000D02*
X130965000Y-63119000D01*
X130965000Y-63119000D02*
X130965000Y-60999000D01*
X145238748Y-82790000D02*
X145761252Y-82790000D01*
X145238748Y-84210000D02*
X145761252Y-84210000D01*
X141738748Y-84210000D02*
X142261252Y-84210000D01*
X141738748Y-82790000D02*
X142261252Y-82790000D01*
X156261252Y-84210000D02*
X155738748Y-84210000D01*
X156261252Y-82790000D02*
X155738748Y-82790000D01*
D13*
X143891400Y-66130100D02*
X148158600Y-66130100D01*
X148158600Y-71387900D02*
X143891400Y-71387900D01*
X154953900Y-72925400D02*
X154953900Y-77192600D01*
X149696100Y-77192600D02*
X149696100Y-72925400D01*
X148678713Y-78679308D02*
X145679308Y-81678713D01*
X139321287Y-75320692D02*
X142320692Y-72321287D01*
X141965442Y-80561201D02*
X142234850Y-80830609D01*
X142234850Y-80830609D02*
X142414455Y-80651004D01*
X142414455Y-80651004D02*
X142145047Y-80381596D01*
X142145047Y-80381596D02*
X141965442Y-80561201D01*
D12*
X150810000Y-81100000D02*
X150810000Y-83550000D01*
X147590000Y-82900000D02*
X147590000Y-81100000D01*
D14*
X154466666Y-70857142D02*
X154514285Y-70904761D01*
X154657142Y-70952380D01*
X154752380Y-70952380D01*
X154895238Y-70904761D01*
X154990476Y-70809523D01*
X155038095Y-70714285D01*
X155085714Y-70523809D01*
X155085714Y-70380952D01*
X155038095Y-70190476D01*
X154990476Y-70095238D01*
X154895238Y-70000000D01*
X154752380Y-69952380D01*
X154657142Y-69952380D01*
X154514285Y-70000000D01*
X154466666Y-70047619D01*
X153514285Y-70952380D02*
X154085714Y-70952380D01*
X153800000Y-70952380D02*
X153800000Y-69952380D01*
X153895238Y-70095238D01*
X153990476Y-70190476D01*
X154085714Y-70238095D01*
X156666666Y-61857142D02*
X156714285Y-61904761D01*
X156857142Y-61952380D01*
X156952380Y-61952380D01*
X157095238Y-61904761D01*
X157190476Y-61809523D01*
X157238095Y-61714285D01*
X157285714Y-61523809D01*
X157285714Y-61380952D01*
X157238095Y-61190476D01*
X157190476Y-61095238D01*
X157095238Y-61000000D01*
X156952380Y-60952380D01*
X156857142Y-60952380D01*
X156714285Y-61000000D01*
X156666666Y-61047619D01*
X156285714Y-61047619D02*
X156238095Y-61000000D01*
X156142857Y-60952380D01*
X155904761Y-60952380D01*
X155809523Y-61000000D01*
X155761904Y-61047619D01*
X155714285Y-61142857D01*
X155714285Y-61238095D01*
X155761904Y-61380952D01*
X156333333Y-61952380D01*
X155714285Y-61952380D01*
X152466666Y-67257142D02*
X152514285Y-67304761D01*
X152657142Y-67352380D01*
X152752380Y-67352380D01*
X152895238Y-67304761D01*
X152990476Y-67209523D01*
X153038095Y-67114285D01*
X153085714Y-66923809D01*
X153085714Y-66780952D01*
X153038095Y-66590476D01*
X152990476Y-66495238D01*
X152895238Y-66400000D01*
X152752380Y-66352380D01*
X152657142Y-66352380D01*
X152514285Y-66400000D01*
X152466666Y-66447619D01*
X152133333Y-66352380D02*
X151514285Y-66352380D01*
X151847619Y-66733333D01*
X151704761Y-66733333D01*
X151609523Y-66780952D01*
X151561904Y-66828571D01*
X151514285Y-66923809D01*
X151514285Y-67161904D01*
X151561904Y-67257142D01*
X151609523Y-67304761D01*
X151704761Y-67352380D01*
X151990476Y-67352380D01*
X152085714Y-67304761D01*
X152133333Y-67257142D01*
X159166666Y-65357142D02*
X159214285Y-65404761D01*
X159357142Y-65452380D01*
X159452380Y-65452380D01*
X159595238Y-65404761D01*
X159690476Y-65309523D01*
X159738095Y-65214285D01*
X159785714Y-65023809D01*
X159785714Y-64880952D01*
X159738095Y-64690476D01*
X159690476Y-64595238D01*
X159595238Y-64500000D01*
X159452380Y-64452380D01*
X159357142Y-64452380D01*
X159214285Y-64500000D01*
X159166666Y-64547619D01*
X158309523Y-64785714D02*
X158309523Y-65452380D01*
X158547619Y-64404761D02*
X158785714Y-65119047D01*
X158166666Y-65119047D01*
D15*
X152083333Y-84878571D02*
X152107142Y-84902380D01*
X152178571Y-84926190D01*
X152226190Y-84926190D01*
X152297619Y-84902380D01*
X152345238Y-84854761D01*
X152369047Y-84807142D01*
X152392857Y-84711904D01*
X152392857Y-84640476D01*
X152369047Y-84545238D01*
X152345238Y-84497619D01*
X152297619Y-84450000D01*
X152226190Y-84426190D01*
X152178571Y-84426190D01*
X152107142Y-84450000D01*
X152083333Y-84473809D01*
X151630952Y-84426190D02*
X151869047Y-84426190D01*
X151892857Y-84664285D01*
X151869047Y-84640476D01*
X151821428Y-84616666D01*
X151702380Y-84616666D01*
X151654761Y-84640476D01*
X151630952Y-84664285D01*
X151607142Y-84711904D01*
X151607142Y-84830952D01*
X151630952Y-84878571D01*
X151654761Y-84902380D01*
X151702380Y-84926190D01*
X151821428Y-84926190D01*
X151869047Y-84902380D01*
X151892857Y-84878571D01*
D14*
X137066666Y-80357142D02*
X137114285Y-80404761D01*
X137257142Y-80452380D01*
X137352380Y-80452380D01*
X137495238Y-80404761D01*
X137590476Y-80309523D01*
X137638095Y-80214285D01*
X137685714Y-80023809D01*
X137685714Y-79880952D01*
X137638095Y-79690476D01*
X137590476Y-79595238D01*
X137495238Y-79500000D01*
X137352380Y-79452380D01*
X137257142Y-79452380D01*
X137114285Y-79500000D01*
X137066666Y-79547619D01*
X136209523Y-79452380D02*
X136400000Y-79452380D01*
X136495238Y-79500000D01*
X136542857Y-79547619D01*
X136638095Y-79690476D01*
X136685714Y-79880952D01*
X136685714Y-80261904D01*
X136638095Y-80357142D01*
X136590476Y-80404761D01*
X136495238Y-80452380D01*
X136304761Y-80452380D01*
X136209523Y-80404761D01*
X136161904Y-80357142D01*
X136114285Y-80261904D01*
X136114285Y-80023809D01*
X136161904Y-79928571D01*
X136209523Y-79880952D01*
X136304761Y-79833333D01*
X136495238Y-79833333D01*
X136590476Y-79880952D01*
X136638095Y-79928571D01*
X136685714Y-80023809D01*
X159066666Y-80957142D02*
X159114285Y-81004761D01*
X159257142Y-81052380D01*
X159352380Y-81052380D01*
X159495238Y-81004761D01*
X159590476Y-80909523D01*
X159638095Y-80814285D01*
X159685714Y-80623809D01*
X159685714Y-80480952D01*
X159638095Y-80290476D01*
X159590476Y-80195238D01*
X159495238Y-80100000D01*
X159352380Y-80052380D01*
X159257142Y-80052380D01*
X159114285Y-80100000D01*
X159066666Y-80147619D01*
X158733333Y-80052380D02*
X158066666Y-80052380D01*
X158495238Y-81052380D01*
X138238095Y-73652380D02*
X138238095Y-72652380D01*
X138000000Y-72652380D01*
X137857142Y-72700000D01*
X137761904Y-72795238D01*
X137714285Y-72890476D01*
X137666666Y-73080952D01*
X137666666Y-73223809D01*
X137714285Y-73414285D01*
X137761904Y-73509523D01*
X137857142Y-73604761D01*
X138000000Y-73652380D01*
X138238095Y-73652380D01*
X136714285Y-73652380D02*
X137285714Y-73652380D01*
X137000000Y-73652380D02*
X137000000Y-72652380D01*
X137095238Y-72795238D01*
X137190476Y-72890476D01*
X137285714Y-72938095D01*
X136238095Y-73652380D02*
X136238095Y-72652380D01*
X136000000Y-72652380D01*
X135857142Y-72700000D01*
X135761904Y-72795238D01*
X135714285Y-72890476D01*
X135666666Y-73080952D01*
X135666666Y-73223809D01*
X135714285Y-73414285D01*
X135761904Y-73509523D01*
X135857142Y-73604761D01*
X136000000Y-73652380D01*
X136238095Y-73652380D01*
X135285714Y-72747619D02*
X135238095Y-72700000D01*
X135142857Y-72652380D01*
X134904761Y-72652380D01*
X134809523Y-72700000D01*
X134761904Y-72747619D01*
X134714285Y-72842857D01*
X134714285Y-72938095D01*
X134761904Y-73080952D01*
X135333333Y-73652380D01*
X134714285Y-73652380D01*
X146666666Y-82552380D02*
X147000000Y-82076190D01*
X147238095Y-82552380D02*
X147238095Y-81552380D01*
X146857142Y-81552380D01*
X146761904Y-81600000D01*
X146714285Y-81647619D01*
X146666666Y-81742857D01*
X146666666Y-81885714D01*
X146714285Y-81980952D01*
X146761904Y-82028571D01*
X146857142Y-82076190D01*
X147238095Y-82076190D01*
X145714285Y-82552380D02*
X146285714Y-82552380D01*
X146000000Y-82552380D02*
X146000000Y-81552380D01*
X146095238Y-81695238D01*
X146190476Y-81790476D01*
X146285714Y-81838095D01*
X142166666Y-82552380D02*
X142500000Y-82076190D01*
X142738095Y-82552380D02*
X142738095Y-81552380D01*
X142357142Y-81552380D01*
X142261904Y-81600000D01*
X142214285Y-81647619D01*
X142166666Y-81742857D01*
X142166666Y-81885714D01*
X142214285Y-81980952D01*
X142261904Y-82028571D01*
X142357142Y-82076190D01*
X142738095Y-82076190D01*
X141785714Y-81647619D02*
X141738095Y-81600000D01*
X141642857Y-81552380D01*
X141404761Y-81552380D01*
X141309523Y-81600000D01*
X141261904Y-81647619D01*
X141214285Y-81742857D01*
X141214285Y-81838095D01*
X141261904Y-81980952D01*
X141833333Y-82552380D01*
X141214285Y-82552380D01*
X156666666Y-85552380D02*
X157000000Y-85076190D01*
X157238095Y-85552380D02*
X157238095Y-84552380D01*
X156857142Y-84552380D01*
X156761904Y-84600000D01*
X156714285Y-84647619D01*
X156666666Y-84742857D01*
X156666666Y-84885714D01*
X156714285Y-84980952D01*
X156761904Y-85028571D01*
X156857142Y-85076190D01*
X157238095Y-85076190D01*
X156333333Y-84552380D02*
X155714285Y-84552380D01*
X156047619Y-84933333D01*
X155904761Y-84933333D01*
X155809523Y-84980952D01*
X155761904Y-85028571D01*
X155714285Y-85123809D01*
X155714285Y-85361904D01*
X155761904Y-85457142D01*
X155809523Y-85504761D01*
X155904761Y-85552380D01*
X156190476Y-85552380D01*
X156285714Y-85504761D01*
X156333333Y-85457142D01*
X146761904Y-67452380D02*
X146761904Y-68261904D01*
X146714285Y-68357142D01*
X146666666Y-68404761D01*
X146571428Y-68452380D01*
X146380952Y-68452380D01*
X146285714Y-68404761D01*
X146238095Y-68357142D01*
X146190476Y-68261904D01*
X146190476Y-67452380D01*
X145190476Y-68452380D02*
X145761904Y-68452380D01*
X145476190Y-68452380D02*
X145476190Y-67452380D01*
X145571428Y-67595238D01*
X145666666Y-67690476D01*
X145761904Y-67738095D01*
X146333333Y-69452380D02*
X145666666Y-70452380D01*
X145666666Y-69452380D02*
X146333333Y-70452380D01*
D15*
X149357142Y-66326190D02*
X149642857Y-66326190D01*
X149500000Y-66326190D02*
X149500000Y-65826190D01*
X149547619Y-65897619D01*
X149595238Y-65945238D01*
X149642857Y-65969047D01*
D14*
X154261904Y-74952380D02*
X154261904Y-75761904D01*
X154214285Y-75857142D01*
X154166666Y-75904761D01*
X154071428Y-75952380D01*
X153880952Y-75952380D01*
X153785714Y-75904761D01*
X153738095Y-75857142D01*
X153690476Y-75761904D01*
X153690476Y-74952380D01*
X153261904Y-75047619D02*
X153214285Y-75000000D01*
X153119047Y-74952380D01*
X152880952Y-74952380D01*
X152785714Y-75000000D01*
X152738095Y-75047619D01*
X152690476Y-75142857D01*
X152690476Y-75238095D01*
X152738095Y-75380952D01*
X153309523Y-75952380D01*
X152690476Y-75952380D01*
X151500000Y-75476190D02*
X151500000Y-75952380D01*
X151833333Y-74952380D02*
X151500000Y-75476190D01*
X151166666Y-74952380D01*
D15*
X149226190Y-73142857D02*
X149226190Y-72857142D01*
X149226190Y-73000000D02*
X148726190Y-73000000D01*
X148797619Y-72952380D01*
X148845238Y-72904761D01*
X148869047Y-72857142D01*
D14*
X148161904Y-73452380D02*
X148161904Y-74261904D01*
X148114285Y-74357142D01*
X148066666Y-74404761D01*
X147971428Y-74452380D01*
X147780952Y-74452380D01*
X147685714Y-74404761D01*
X147638095Y-74357142D01*
X147590476Y-74261904D01*
X147590476Y-73452380D01*
X147209523Y-73452380D02*
X146590476Y-73452380D01*
X146923809Y-73833333D01*
X146780952Y-73833333D01*
X146685714Y-73880952D01*
X146638095Y-73928571D01*
X146590476Y-74023809D01*
X146590476Y-74261904D01*
X146638095Y-74357142D01*
X146685714Y-74404761D01*
X146780952Y-74452380D01*
X147066666Y-74452380D01*
X147161904Y-74404761D01*
X147209523Y-74357142D01*
D15*
X142458925Y-71960956D02*
X142660956Y-71758925D01*
X142559940Y-71859940D02*
X142206387Y-71506387D01*
X142290566Y-71523223D01*
X142357910Y-71523223D01*
X142408417Y-71506387D01*
D14*
X152261904Y-79352380D02*
X152261904Y-80161904D01*
X152214285Y-80257142D01*
X152166666Y-80304761D01*
X152071428Y-80352380D01*
X151880952Y-80352380D01*
X151785714Y-80304761D01*
X151738095Y-80257142D01*
X151690476Y-80161904D01*
X151690476Y-79352380D01*
X150785714Y-79685714D02*
X150785714Y-80352380D01*
X151023809Y-79304761D02*
X151261904Y-80019047D01*
X150642857Y-80019047D01*
M02*
