G04 #@! TF.GenerationSoftware,KiCad,Pcbnew,(5.1.6-0-10_14)*
G04 #@! TF.CreationDate,2020-10-20T16:11:55+02:00*
G04 #@! TF.ProjectId,ProStick64_PCB_v6,50726f53-7469-4636-9b36-345f5043425f,rev?*
G04 #@! TF.SameCoordinates,Original*
G04 #@! TF.FileFunction,Soldermask,Top*
G04 #@! TF.FilePolarity,Negative*
%FSLAX46Y46*%
G04 Gerber Fmt 4.6, Leading zero omitted, Abs format (unit mm)*
G04 Created by KiCad (PCBNEW (5.1.6-0-10_14)) date 2020-10-20 16:11:55*
%MOMM*%
%LPD*%
G01*
G04 APERTURE LIST*
%ADD10C,0.100000*%
G04 APERTURE END LIST*
D10*
G36*
X133822686Y-82856735D02*
G01*
X133906772Y-82873461D01*
X133912679Y-82875253D01*
X133912680Y-82875253D01*
X133922294Y-82878169D01*
X133922297Y-82878170D01*
X133928194Y-82879959D01*
X134007413Y-82912774D01*
X134012845Y-82915677D01*
X134012849Y-82915679D01*
X134016971Y-82917883D01*
X134027146Y-82923321D01*
X134098438Y-82970957D01*
X134103206Y-82974870D01*
X134110973Y-82981243D01*
X134110977Y-82981247D01*
X134115744Y-82985159D01*
X134128763Y-82998179D01*
X134137859Y-83006423D01*
X134152096Y-83018106D01*
X134496968Y-83362978D01*
X134507255Y-83375513D01*
X134511993Y-83384377D01*
X134514908Y-83393986D01*
X134515892Y-83403985D01*
X134514316Y-83419995D01*
X134511882Y-83432228D01*
X134511882Y-83456733D01*
X134516662Y-83480766D01*
X134526039Y-83503405D01*
X134539652Y-83523780D01*
X134556979Y-83541107D01*
X134577353Y-83554721D01*
X134599991Y-83564099D01*
X134624024Y-83568880D01*
X134648529Y-83568880D01*
X134660762Y-83566447D01*
X134676777Y-83564870D01*
X134686776Y-83565854D01*
X134696385Y-83568769D01*
X134705249Y-83573507D01*
X134717784Y-83583794D01*
X135062656Y-83928666D01*
X135074339Y-83942903D01*
X135082583Y-83951999D01*
X135095603Y-83965018D01*
X135099515Y-83969785D01*
X135099519Y-83969789D01*
X135104584Y-83975962D01*
X135109805Y-83982324D01*
X135157441Y-84053616D01*
X135167988Y-84073349D01*
X135200803Y-84152568D01*
X135207301Y-84173990D01*
X135224027Y-84258076D01*
X135226221Y-84280355D01*
X135226221Y-84366091D01*
X135224027Y-84388370D01*
X135207301Y-84472457D01*
X135200803Y-84493881D01*
X135167991Y-84573093D01*
X135157439Y-84592835D01*
X135109805Y-84664123D01*
X135095608Y-84681423D01*
X135082578Y-84694453D01*
X135074338Y-84703545D01*
X135062653Y-84717784D01*
X134717784Y-85062653D01*
X134703545Y-85074338D01*
X134694453Y-85082578D01*
X134681423Y-85095608D01*
X134664123Y-85109805D01*
X134592835Y-85157439D01*
X134573093Y-85167991D01*
X134493881Y-85200803D01*
X134472457Y-85207301D01*
X134388370Y-85224027D01*
X134366091Y-85226221D01*
X134280355Y-85226221D01*
X134258076Y-85224027D01*
X134173990Y-85207301D01*
X134168082Y-85205509D01*
X134158468Y-85202593D01*
X134158465Y-85202592D01*
X134152568Y-85200803D01*
X134073349Y-85167988D01*
X134067917Y-85165085D01*
X134067913Y-85165083D01*
X134063791Y-85162879D01*
X134053616Y-85157441D01*
X133982324Y-85109805D01*
X133975962Y-85104584D01*
X133969789Y-85099519D01*
X133969785Y-85099515D01*
X133965018Y-85095603D01*
X133951999Y-85082583D01*
X133942903Y-85074339D01*
X133928666Y-85062656D01*
X133583794Y-84717784D01*
X133573507Y-84705249D01*
X133568769Y-84696385D01*
X133565854Y-84686776D01*
X133564870Y-84676777D01*
X133566446Y-84660767D01*
X133568880Y-84648534D01*
X133568880Y-84624029D01*
X133564100Y-84599996D01*
X133554723Y-84577357D01*
X133541110Y-84556982D01*
X133523783Y-84539655D01*
X133503409Y-84526041D01*
X133480771Y-84516663D01*
X133456738Y-84511882D01*
X133432233Y-84511882D01*
X133420000Y-84514315D01*
X133403985Y-84515892D01*
X133393986Y-84514908D01*
X133384377Y-84511993D01*
X133375513Y-84507255D01*
X133362978Y-84496968D01*
X133018106Y-84152096D01*
X133006423Y-84137859D01*
X132998179Y-84128763D01*
X132985159Y-84115744D01*
X132981247Y-84110977D01*
X132981243Y-84110973D01*
X132974870Y-84103206D01*
X132970957Y-84098438D01*
X132923321Y-84027146D01*
X132912774Y-84007413D01*
X132879959Y-83928194D01*
X132873461Y-83906772D01*
X132856735Y-83822686D01*
X132854541Y-83800407D01*
X132854541Y-83714671D01*
X132856735Y-83692392D01*
X132873461Y-83608305D01*
X132879959Y-83586881D01*
X132912771Y-83507669D01*
X132923323Y-83487927D01*
X132970957Y-83416639D01*
X132985154Y-83399339D01*
X132998184Y-83386309D01*
X133006424Y-83377217D01*
X133018109Y-83362978D01*
X133362978Y-83018109D01*
X133377217Y-83006424D01*
X133386309Y-82998184D01*
X133399339Y-82985154D01*
X133416639Y-82970957D01*
X133487927Y-82923323D01*
X133507669Y-82912771D01*
X133586881Y-82879959D01*
X133608305Y-82873461D01*
X133692392Y-82856735D01*
X133714671Y-82854541D01*
X133800407Y-82854541D01*
X133822686Y-82856735D01*
G37*
G36*
X154139903Y-80506075D02*
G01*
X154367571Y-80600378D01*
X154572466Y-80737285D01*
X154746715Y-80911534D01*
X154883622Y-81116429D01*
X154977925Y-81344097D01*
X155026000Y-81585787D01*
X155026000Y-81832213D01*
X154977925Y-82073903D01*
X154883622Y-82301571D01*
X154746715Y-82506466D01*
X154572466Y-82680715D01*
X154367571Y-82817622D01*
X154367570Y-82817623D01*
X154367569Y-82817623D01*
X154139903Y-82911925D01*
X153898214Y-82960000D01*
X153651786Y-82960000D01*
X153410097Y-82911925D01*
X153182431Y-82817623D01*
X153182430Y-82817623D01*
X153182429Y-82817622D01*
X152977534Y-82680715D01*
X152803285Y-82506466D01*
X152666378Y-82301571D01*
X152572075Y-82073903D01*
X152524000Y-81832213D01*
X152524000Y-81585787D01*
X152572075Y-81344097D01*
X152666378Y-81116429D01*
X152803285Y-80911534D01*
X152977534Y-80737285D01*
X153182429Y-80600378D01*
X153410097Y-80506075D01*
X153651786Y-80458000D01*
X153898214Y-80458000D01*
X154139903Y-80506075D01*
G37*
G36*
X138639903Y-80506075D02*
G01*
X138867571Y-80600378D01*
X139072466Y-80737285D01*
X139246715Y-80911534D01*
X139383622Y-81116429D01*
X139477925Y-81344097D01*
X139526000Y-81585787D01*
X139526000Y-81832213D01*
X139477925Y-82073903D01*
X139383622Y-82301571D01*
X139246715Y-82506466D01*
X139072466Y-82680715D01*
X138867571Y-82817622D01*
X138867570Y-82817623D01*
X138867569Y-82817623D01*
X138639903Y-82911925D01*
X138398214Y-82960000D01*
X138151786Y-82960000D01*
X137910097Y-82911925D01*
X137682431Y-82817623D01*
X137682430Y-82817623D01*
X137682429Y-82817622D01*
X137477534Y-82680715D01*
X137303285Y-82506466D01*
X137166378Y-82301571D01*
X137072075Y-82073903D01*
X137024000Y-81832213D01*
X137024000Y-81585787D01*
X137072075Y-81344097D01*
X137166378Y-81116429D01*
X137303285Y-80911534D01*
X137477534Y-80737285D01*
X137682429Y-80600378D01*
X137910097Y-80506075D01*
X138151786Y-80458000D01*
X138398214Y-80458000D01*
X138639903Y-80506075D01*
G37*
G36*
X160701000Y-82601000D02*
G01*
X158899000Y-82601000D01*
X158899000Y-80799000D01*
X160701000Y-80799000D01*
X160701000Y-82601000D01*
G37*
G36*
X133113512Y-79303927D02*
G01*
X133262812Y-79333624D01*
X133426784Y-79401544D01*
X133574354Y-79500147D01*
X133699853Y-79625646D01*
X133798456Y-79773216D01*
X133866376Y-79937188D01*
X133901000Y-80111259D01*
X133901000Y-80288741D01*
X133866376Y-80462812D01*
X133798456Y-80626784D01*
X133699853Y-80774354D01*
X133574354Y-80899853D01*
X133426784Y-80998456D01*
X133262812Y-81066376D01*
X133113512Y-81096073D01*
X133088742Y-81101000D01*
X132911258Y-81101000D01*
X132886488Y-81096073D01*
X132737188Y-81066376D01*
X132573216Y-80998456D01*
X132425646Y-80899853D01*
X132300147Y-80774354D01*
X132201544Y-80626784D01*
X132133624Y-80462812D01*
X132099000Y-80288741D01*
X132099000Y-80111259D01*
X132133624Y-79937188D01*
X132201544Y-79773216D01*
X132300147Y-79625646D01*
X132425646Y-79500147D01*
X132573216Y-79401544D01*
X132737188Y-79333624D01*
X132886488Y-79303927D01*
X132911258Y-79299000D01*
X133088742Y-79299000D01*
X133113512Y-79303927D01*
G37*
G36*
X159913512Y-78263927D02*
G01*
X160062812Y-78293624D01*
X160226784Y-78361544D01*
X160374354Y-78460147D01*
X160499853Y-78585646D01*
X160598456Y-78733216D01*
X160666376Y-78897188D01*
X160701000Y-79071259D01*
X160701000Y-79248741D01*
X160666376Y-79422812D01*
X160598456Y-79586784D01*
X160499853Y-79734354D01*
X160374354Y-79859853D01*
X160226784Y-79958456D01*
X160062812Y-80026376D01*
X159913512Y-80056073D01*
X159888742Y-80061000D01*
X159711258Y-80061000D01*
X159686488Y-80056073D01*
X159537188Y-80026376D01*
X159373216Y-79958456D01*
X159225646Y-79859853D01*
X159100147Y-79734354D01*
X159001544Y-79586784D01*
X158933624Y-79422812D01*
X158899000Y-79248741D01*
X158899000Y-79071259D01*
X158933624Y-78897188D01*
X159001544Y-78733216D01*
X159100147Y-78585646D01*
X159225646Y-78460147D01*
X159373216Y-78361544D01*
X159537188Y-78293624D01*
X159686488Y-78263927D01*
X159711258Y-78259000D01*
X159888742Y-78259000D01*
X159913512Y-78263927D01*
G37*
G36*
X133113512Y-76763927D02*
G01*
X133262812Y-76793624D01*
X133426784Y-76861544D01*
X133574354Y-76960147D01*
X133699853Y-77085646D01*
X133798456Y-77233216D01*
X133866376Y-77397188D01*
X133901000Y-77571259D01*
X133901000Y-77748741D01*
X133866376Y-77922812D01*
X133798456Y-78086784D01*
X133699853Y-78234354D01*
X133574354Y-78359853D01*
X133426784Y-78458456D01*
X133262812Y-78526376D01*
X133113512Y-78556073D01*
X133088742Y-78561000D01*
X132911258Y-78561000D01*
X132886488Y-78556073D01*
X132737188Y-78526376D01*
X132573216Y-78458456D01*
X132425646Y-78359853D01*
X132300147Y-78234354D01*
X132201544Y-78086784D01*
X132133624Y-77922812D01*
X132099000Y-77748741D01*
X132099000Y-77571259D01*
X132133624Y-77397188D01*
X132201544Y-77233216D01*
X132300147Y-77085646D01*
X132425646Y-76960147D01*
X132573216Y-76861544D01*
X132737188Y-76793624D01*
X132886488Y-76763927D01*
X132911258Y-76759000D01*
X133088742Y-76759000D01*
X133113512Y-76763927D01*
G37*
G36*
X155945899Y-76699832D02*
G01*
X156030520Y-76716664D01*
X156189942Y-76782699D01*
X156333418Y-76878566D01*
X156455434Y-77000582D01*
X156551301Y-77144058D01*
X156617336Y-77303480D01*
X156651000Y-77472721D01*
X156651000Y-77645279D01*
X156617336Y-77814520D01*
X156551301Y-77973942D01*
X156455434Y-78117418D01*
X156333418Y-78239434D01*
X156189942Y-78335301D01*
X156030520Y-78401336D01*
X155945899Y-78418168D01*
X155861280Y-78435000D01*
X155688720Y-78435000D01*
X155604101Y-78418168D01*
X155519480Y-78401336D01*
X155360058Y-78335301D01*
X155216582Y-78239434D01*
X155094566Y-78117418D01*
X154998699Y-77973942D01*
X154932664Y-77814520D01*
X154899000Y-77645279D01*
X154899000Y-77472721D01*
X154932664Y-77303480D01*
X154998699Y-77144058D01*
X155094566Y-77000582D01*
X155216582Y-76878566D01*
X155360058Y-76782699D01*
X155519480Y-76716664D01*
X155604101Y-76699832D01*
X155688720Y-76683000D01*
X155861280Y-76683000D01*
X155945899Y-76699832D01*
G37*
G36*
X159913512Y-75723927D02*
G01*
X160062812Y-75753624D01*
X160226784Y-75821544D01*
X160374354Y-75920147D01*
X160499853Y-76045646D01*
X160598456Y-76193216D01*
X160666376Y-76357188D01*
X160701000Y-76531259D01*
X160701000Y-76708741D01*
X160666376Y-76882812D01*
X160598456Y-77046784D01*
X160499853Y-77194354D01*
X160374354Y-77319853D01*
X160226784Y-77418456D01*
X160062812Y-77486376D01*
X159913512Y-77516073D01*
X159888742Y-77521000D01*
X159711258Y-77521000D01*
X159686488Y-77516073D01*
X159537188Y-77486376D01*
X159373216Y-77418456D01*
X159225646Y-77319853D01*
X159100147Y-77194354D01*
X159001544Y-77046784D01*
X158933624Y-76882812D01*
X158899000Y-76708741D01*
X158899000Y-76531259D01*
X158933624Y-76357188D01*
X159001544Y-76193216D01*
X159100147Y-76045646D01*
X159225646Y-75920147D01*
X159373216Y-75821544D01*
X159537188Y-75753624D01*
X159686488Y-75723927D01*
X159711258Y-75719000D01*
X159888742Y-75719000D01*
X159913512Y-75723927D01*
G37*
G36*
X133113512Y-74223927D02*
G01*
X133262812Y-74253624D01*
X133426784Y-74321544D01*
X133574354Y-74420147D01*
X133699853Y-74545646D01*
X133798456Y-74693216D01*
X133866376Y-74857188D01*
X133901000Y-75031259D01*
X133901000Y-75208741D01*
X133866376Y-75382812D01*
X133798456Y-75546784D01*
X133699853Y-75694354D01*
X133574354Y-75819853D01*
X133426784Y-75918456D01*
X133262812Y-75986376D01*
X133113512Y-76016073D01*
X133088742Y-76021000D01*
X132911258Y-76021000D01*
X132886488Y-76016073D01*
X132737188Y-75986376D01*
X132573216Y-75918456D01*
X132425646Y-75819853D01*
X132300147Y-75694354D01*
X132201544Y-75546784D01*
X132133624Y-75382812D01*
X132099000Y-75208741D01*
X132099000Y-75031259D01*
X132133624Y-74857188D01*
X132201544Y-74693216D01*
X132300147Y-74545646D01*
X132425646Y-74420147D01*
X132573216Y-74321544D01*
X132737188Y-74253624D01*
X132886488Y-74223927D01*
X132911258Y-74219000D01*
X133088742Y-74219000D01*
X133113512Y-74223927D01*
G37*
G36*
X156030520Y-74216664D02*
G01*
X156189942Y-74282699D01*
X156333418Y-74378566D01*
X156455434Y-74500582D01*
X156551301Y-74644058D01*
X156617336Y-74803480D01*
X156617336Y-74803481D01*
X156651000Y-74972720D01*
X156651000Y-75145280D01*
X156617336Y-75314520D01*
X156551301Y-75473942D01*
X156455434Y-75617418D01*
X156333418Y-75739434D01*
X156189942Y-75835301D01*
X156030520Y-75901336D01*
X155861280Y-75935000D01*
X155688720Y-75935000D01*
X155519480Y-75901336D01*
X155360058Y-75835301D01*
X155216582Y-75739434D01*
X155094566Y-75617418D01*
X154998699Y-75473942D01*
X154932664Y-75314520D01*
X154899000Y-75145280D01*
X154899000Y-74972720D01*
X154932664Y-74803481D01*
X154932664Y-74803480D01*
X154998699Y-74644058D01*
X155094566Y-74500582D01*
X155216582Y-74378566D01*
X155360058Y-74282699D01*
X155519480Y-74216664D01*
X155688720Y-74183000D01*
X155861280Y-74183000D01*
X156030520Y-74216664D01*
G37*
G36*
X133108851Y-71683000D02*
G01*
X133262812Y-71713624D01*
X133426784Y-71781544D01*
X133574354Y-71880147D01*
X133699853Y-72005646D01*
X133798456Y-72153216D01*
X133866376Y-72317188D01*
X133896073Y-72466488D01*
X133897313Y-72472720D01*
X133901000Y-72491259D01*
X133901000Y-72668741D01*
X133866376Y-72842812D01*
X133798456Y-73006784D01*
X133699853Y-73154354D01*
X133574354Y-73279853D01*
X133426784Y-73378456D01*
X133262812Y-73446376D01*
X133113512Y-73476073D01*
X133088742Y-73481000D01*
X132911258Y-73481000D01*
X132886488Y-73476073D01*
X132737188Y-73446376D01*
X132573216Y-73378456D01*
X132425646Y-73279853D01*
X132300147Y-73154354D01*
X132201544Y-73006784D01*
X132133624Y-72842812D01*
X132099000Y-72668741D01*
X132099000Y-72491259D01*
X132102688Y-72472720D01*
X132103927Y-72466488D01*
X132133624Y-72317188D01*
X132201544Y-72153216D01*
X132300147Y-72005646D01*
X132425646Y-71880147D01*
X132573216Y-71781544D01*
X132737188Y-71713624D01*
X132891149Y-71683000D01*
X132911258Y-71679000D01*
X133088742Y-71679000D01*
X133108851Y-71683000D01*
G37*
G36*
X155945899Y-71699832D02*
G01*
X156030520Y-71716664D01*
X156189942Y-71782699D01*
X156333418Y-71878566D01*
X156455434Y-72000582D01*
X156551301Y-72144058D01*
X156617336Y-72303480D01*
X156651000Y-72472721D01*
X156651000Y-72645279D01*
X156617336Y-72814520D01*
X156551301Y-72973942D01*
X156455434Y-73117418D01*
X156333418Y-73239434D01*
X156189942Y-73335301D01*
X156030520Y-73401336D01*
X155945899Y-73418168D01*
X155861280Y-73435000D01*
X155688720Y-73435000D01*
X155604101Y-73418168D01*
X155519480Y-73401336D01*
X155360058Y-73335301D01*
X155216582Y-73239434D01*
X155094566Y-73117418D01*
X154998699Y-72973942D01*
X154932664Y-72814520D01*
X154899000Y-72645279D01*
X154899000Y-72472721D01*
X154932664Y-72303480D01*
X154998699Y-72144058D01*
X155094566Y-72000582D01*
X155216582Y-71878566D01*
X155360058Y-71782699D01*
X155519480Y-71716664D01*
X155604101Y-71699832D01*
X155688720Y-71683000D01*
X155861280Y-71683000D01*
X155945899Y-71699832D01*
G37*
G36*
X133113512Y-69143927D02*
G01*
X133262812Y-69173624D01*
X133426784Y-69241544D01*
X133574354Y-69340147D01*
X133699853Y-69465646D01*
X133798456Y-69613216D01*
X133866376Y-69777188D01*
X133901000Y-69951259D01*
X133901000Y-70128741D01*
X133866376Y-70302812D01*
X133798456Y-70466784D01*
X133699853Y-70614354D01*
X133574354Y-70739853D01*
X133426784Y-70838456D01*
X133262812Y-70906376D01*
X133113512Y-70936073D01*
X133088742Y-70941000D01*
X132911258Y-70941000D01*
X132886488Y-70936073D01*
X132737188Y-70906376D01*
X132573216Y-70838456D01*
X132425646Y-70739853D01*
X132300147Y-70614354D01*
X132201544Y-70466784D01*
X132133624Y-70302812D01*
X132099000Y-70128741D01*
X132099000Y-69951259D01*
X132133624Y-69777188D01*
X132201544Y-69613216D01*
X132300147Y-69465646D01*
X132425646Y-69340147D01*
X132573216Y-69241544D01*
X132737188Y-69173624D01*
X132886488Y-69143927D01*
X132911258Y-69139000D01*
X133088742Y-69139000D01*
X133113512Y-69143927D01*
G37*
G36*
X138639903Y-67206075D02*
G01*
X138867571Y-67300378D01*
X139072466Y-67437285D01*
X139246715Y-67611534D01*
X139383622Y-67816429D01*
X139477925Y-68044097D01*
X139526000Y-68285787D01*
X139526000Y-68532213D01*
X139477925Y-68773903D01*
X139383622Y-69001571D01*
X139246715Y-69206466D01*
X139072466Y-69380715D01*
X138867571Y-69517622D01*
X138867570Y-69517623D01*
X138867569Y-69517623D01*
X138639903Y-69611925D01*
X138398214Y-69660000D01*
X138151786Y-69660000D01*
X137910097Y-69611925D01*
X137682431Y-69517623D01*
X137682430Y-69517623D01*
X137682429Y-69517622D01*
X137477534Y-69380715D01*
X137303285Y-69206466D01*
X137166378Y-69001571D01*
X137072075Y-68773903D01*
X137024000Y-68532213D01*
X137024000Y-68285787D01*
X137072075Y-68044097D01*
X137166378Y-67816429D01*
X137303285Y-67611534D01*
X137477534Y-67437285D01*
X137682429Y-67300378D01*
X137910097Y-67206075D01*
X138151786Y-67158000D01*
X138398214Y-67158000D01*
X138639903Y-67206075D01*
G37*
G36*
X154139903Y-67206075D02*
G01*
X154367571Y-67300378D01*
X154572466Y-67437285D01*
X154746715Y-67611534D01*
X154883622Y-67816429D01*
X154977925Y-68044097D01*
X155026000Y-68285787D01*
X155026000Y-68532213D01*
X154977925Y-68773903D01*
X154883622Y-69001571D01*
X154746715Y-69206466D01*
X154572466Y-69380715D01*
X154367571Y-69517622D01*
X154367570Y-69517623D01*
X154367569Y-69517623D01*
X154139903Y-69611925D01*
X153898214Y-69660000D01*
X153651786Y-69660000D01*
X153410097Y-69611925D01*
X153182431Y-69517623D01*
X153182430Y-69517623D01*
X153182429Y-69517622D01*
X152977534Y-69380715D01*
X152803285Y-69206466D01*
X152666378Y-69001571D01*
X152572075Y-68773903D01*
X152524000Y-68532213D01*
X152524000Y-68285787D01*
X152572075Y-68044097D01*
X152666378Y-67816429D01*
X152803285Y-67611534D01*
X152977534Y-67437285D01*
X153182429Y-67300378D01*
X153410097Y-67206075D01*
X153651786Y-67158000D01*
X153898214Y-67158000D01*
X154139903Y-67206075D01*
G37*
G36*
X133901000Y-68401000D02*
G01*
X132099000Y-68401000D01*
X132099000Y-66599000D01*
X133901000Y-66599000D01*
X133901000Y-68401000D01*
G37*
G36*
X146195899Y-64449832D02*
G01*
X146280520Y-64466664D01*
X146439942Y-64532699D01*
X146583418Y-64628566D01*
X146705434Y-64750582D01*
X146801301Y-64894058D01*
X146867336Y-65053480D01*
X146901000Y-65222721D01*
X146901000Y-65395279D01*
X146867336Y-65564520D01*
X146801301Y-65723942D01*
X146705434Y-65867418D01*
X146583418Y-65989434D01*
X146439942Y-66085301D01*
X146280520Y-66151336D01*
X146195899Y-66168168D01*
X146111280Y-66185000D01*
X145938720Y-66185000D01*
X145854101Y-66168168D01*
X145769480Y-66151336D01*
X145610058Y-66085301D01*
X145466582Y-65989434D01*
X145344566Y-65867418D01*
X145248699Y-65723942D01*
X145182664Y-65564520D01*
X145149000Y-65395279D01*
X145149000Y-65222721D01*
X145182664Y-65053480D01*
X145248699Y-64894058D01*
X145344566Y-64750582D01*
X145466582Y-64628566D01*
X145610058Y-64532699D01*
X145769480Y-64466664D01*
X145854101Y-64449832D01*
X145938720Y-64433000D01*
X146111280Y-64433000D01*
X146195899Y-64449832D01*
G37*
G36*
X148695899Y-64449832D02*
G01*
X148780520Y-64466664D01*
X148939942Y-64532699D01*
X149083418Y-64628566D01*
X149205434Y-64750582D01*
X149301301Y-64894058D01*
X149367336Y-65053480D01*
X149401000Y-65222721D01*
X149401000Y-65395279D01*
X149367336Y-65564520D01*
X149301301Y-65723942D01*
X149205434Y-65867418D01*
X149083418Y-65989434D01*
X148939942Y-66085301D01*
X148780520Y-66151336D01*
X148695899Y-66168168D01*
X148611280Y-66185000D01*
X148438720Y-66185000D01*
X148354101Y-66168168D01*
X148269480Y-66151336D01*
X148110058Y-66085301D01*
X147966582Y-65989434D01*
X147844566Y-65867418D01*
X147748699Y-65723942D01*
X147682664Y-65564520D01*
X147649000Y-65395279D01*
X147649000Y-65222721D01*
X147682664Y-65053480D01*
X147748699Y-64894058D01*
X147844566Y-64750582D01*
X147966582Y-64628566D01*
X148110058Y-64532699D01*
X148269480Y-64466664D01*
X148354101Y-64449832D01*
X148438720Y-64433000D01*
X148611280Y-64433000D01*
X148695899Y-64449832D01*
G37*
G36*
X143695899Y-64449832D02*
G01*
X143780520Y-64466664D01*
X143939942Y-64532699D01*
X144083418Y-64628566D01*
X144205434Y-64750582D01*
X144301301Y-64894058D01*
X144367336Y-65053480D01*
X144401000Y-65222721D01*
X144401000Y-65395279D01*
X144367336Y-65564520D01*
X144301301Y-65723942D01*
X144205434Y-65867418D01*
X144083418Y-65989434D01*
X143939942Y-66085301D01*
X143780520Y-66151336D01*
X143695899Y-66168168D01*
X143611280Y-66185000D01*
X143438720Y-66185000D01*
X143354101Y-66168168D01*
X143269480Y-66151336D01*
X143110058Y-66085301D01*
X142966582Y-65989434D01*
X142844566Y-65867418D01*
X142748699Y-65723942D01*
X142682664Y-65564520D01*
X142649000Y-65395279D01*
X142649000Y-65222721D01*
X142682664Y-65053480D01*
X142748699Y-64894058D01*
X142844566Y-64750582D01*
X142966582Y-64628566D01*
X143110058Y-64532699D01*
X143269480Y-64466664D01*
X143354101Y-64449832D01*
X143438720Y-64433000D01*
X143611280Y-64433000D01*
X143695899Y-64449832D01*
G37*
G36*
X132236766Y-61360899D02*
G01*
X132368888Y-61415626D01*
X132368890Y-61415627D01*
X132487798Y-61495079D01*
X132588921Y-61596202D01*
X132588922Y-61596204D01*
X132668374Y-61715112D01*
X132723101Y-61847234D01*
X132751000Y-61987494D01*
X132751000Y-62130506D01*
X132723101Y-62270766D01*
X132668374Y-62402888D01*
X132668373Y-62402890D01*
X132588921Y-62521798D01*
X132487798Y-62622921D01*
X132368890Y-62702373D01*
X132368889Y-62702374D01*
X132368888Y-62702374D01*
X132236766Y-62757101D01*
X132096506Y-62785000D01*
X131953494Y-62785000D01*
X131813234Y-62757101D01*
X131681112Y-62702374D01*
X131681111Y-62702374D01*
X131681110Y-62702373D01*
X131562202Y-62622921D01*
X131461079Y-62521798D01*
X131381627Y-62402890D01*
X131381626Y-62402888D01*
X131326899Y-62270766D01*
X131299000Y-62130506D01*
X131299000Y-61987494D01*
X131326899Y-61847234D01*
X131381626Y-61715112D01*
X131461078Y-61596204D01*
X131461079Y-61596202D01*
X131562202Y-61495079D01*
X131681110Y-61415627D01*
X131681112Y-61415626D01*
X131813234Y-61360899D01*
X131953494Y-61333000D01*
X132096506Y-61333000D01*
X132236766Y-61360899D01*
G37*
G36*
X134236766Y-61360899D02*
G01*
X134368888Y-61415626D01*
X134368890Y-61415627D01*
X134487798Y-61495079D01*
X134588921Y-61596202D01*
X134588922Y-61596204D01*
X134668374Y-61715112D01*
X134723101Y-61847234D01*
X134751000Y-61987494D01*
X134751000Y-62130506D01*
X134723101Y-62270766D01*
X134668374Y-62402888D01*
X134668373Y-62402890D01*
X134588921Y-62521798D01*
X134487798Y-62622921D01*
X134368890Y-62702373D01*
X134368889Y-62702374D01*
X134368888Y-62702374D01*
X134236766Y-62757101D01*
X134096506Y-62785000D01*
X133953494Y-62785000D01*
X133813234Y-62757101D01*
X133681112Y-62702374D01*
X133681111Y-62702374D01*
X133681110Y-62702373D01*
X133562202Y-62622921D01*
X133461079Y-62521798D01*
X133381627Y-62402890D01*
X133381626Y-62402888D01*
X133326899Y-62270766D01*
X133299000Y-62130506D01*
X133299000Y-61987494D01*
X133326899Y-61847234D01*
X133381626Y-61715112D01*
X133461078Y-61596204D01*
X133461079Y-61596202D01*
X133562202Y-61495079D01*
X133681110Y-61415627D01*
X133681112Y-61415626D01*
X133813234Y-61360899D01*
X133953494Y-61333000D01*
X134096506Y-61333000D01*
X134236766Y-61360899D01*
G37*
G36*
X136236766Y-61360899D02*
G01*
X136368888Y-61415626D01*
X136368890Y-61415627D01*
X136487798Y-61495079D01*
X136588921Y-61596202D01*
X136588922Y-61596204D01*
X136668374Y-61715112D01*
X136723101Y-61847234D01*
X136751000Y-61987494D01*
X136751000Y-62130506D01*
X136723101Y-62270766D01*
X136668374Y-62402888D01*
X136668373Y-62402890D01*
X136588921Y-62521798D01*
X136487798Y-62622921D01*
X136368890Y-62702373D01*
X136368889Y-62702374D01*
X136368888Y-62702374D01*
X136236766Y-62757101D01*
X136096506Y-62785000D01*
X135953494Y-62785000D01*
X135813234Y-62757101D01*
X135681112Y-62702374D01*
X135681111Y-62702374D01*
X135681110Y-62702373D01*
X135562202Y-62622921D01*
X135461079Y-62521798D01*
X135381627Y-62402890D01*
X135381626Y-62402888D01*
X135326899Y-62270766D01*
X135299000Y-62130506D01*
X135299000Y-61987494D01*
X135326899Y-61847234D01*
X135381626Y-61715112D01*
X135461078Y-61596204D01*
X135461079Y-61596202D01*
X135562202Y-61495079D01*
X135681110Y-61415627D01*
X135681112Y-61415626D01*
X135813234Y-61360899D01*
X135953494Y-61333000D01*
X136096506Y-61333000D01*
X136236766Y-61360899D01*
G37*
G36*
X138236766Y-61360899D02*
G01*
X138368888Y-61415626D01*
X138368890Y-61415627D01*
X138487798Y-61495079D01*
X138588921Y-61596202D01*
X138588922Y-61596204D01*
X138668374Y-61715112D01*
X138723101Y-61847234D01*
X138751000Y-61987494D01*
X138751000Y-62130506D01*
X138723101Y-62270766D01*
X138668374Y-62402888D01*
X138668373Y-62402890D01*
X138588921Y-62521798D01*
X138487798Y-62622921D01*
X138368890Y-62702373D01*
X138368889Y-62702374D01*
X138368888Y-62702374D01*
X138236766Y-62757101D01*
X138096506Y-62785000D01*
X137953494Y-62785000D01*
X137813234Y-62757101D01*
X137681112Y-62702374D01*
X137681111Y-62702374D01*
X137681110Y-62702373D01*
X137562202Y-62622921D01*
X137461079Y-62521798D01*
X137381627Y-62402890D01*
X137381626Y-62402888D01*
X137326899Y-62270766D01*
X137299000Y-62130506D01*
X137299000Y-61987494D01*
X137326899Y-61847234D01*
X137381626Y-61715112D01*
X137461078Y-61596204D01*
X137461079Y-61596202D01*
X137562202Y-61495079D01*
X137681110Y-61415627D01*
X137681112Y-61415626D01*
X137813234Y-61360899D01*
X137953494Y-61333000D01*
X138096506Y-61333000D01*
X138236766Y-61360899D01*
G37*
G36*
X140236766Y-61360899D02*
G01*
X140368888Y-61415626D01*
X140368890Y-61415627D01*
X140487798Y-61495079D01*
X140588921Y-61596202D01*
X140588922Y-61596204D01*
X140668374Y-61715112D01*
X140723101Y-61847234D01*
X140751000Y-61987494D01*
X140751000Y-62130506D01*
X140723101Y-62270766D01*
X140668374Y-62402888D01*
X140668373Y-62402890D01*
X140588921Y-62521798D01*
X140487798Y-62622921D01*
X140368890Y-62702373D01*
X140368889Y-62702374D01*
X140368888Y-62702374D01*
X140236766Y-62757101D01*
X140096506Y-62785000D01*
X139953494Y-62785000D01*
X139813234Y-62757101D01*
X139681112Y-62702374D01*
X139681111Y-62702374D01*
X139681110Y-62702373D01*
X139562202Y-62622921D01*
X139461079Y-62521798D01*
X139381627Y-62402890D01*
X139381626Y-62402888D01*
X139326899Y-62270766D01*
X139299000Y-62130506D01*
X139299000Y-61987494D01*
X139326899Y-61847234D01*
X139381626Y-61715112D01*
X139461078Y-61596204D01*
X139461079Y-61596202D01*
X139562202Y-61495079D01*
X139681110Y-61415627D01*
X139681112Y-61415626D01*
X139813234Y-61360899D01*
X139953494Y-61333000D01*
X140096506Y-61333000D01*
X140236766Y-61360899D01*
G37*
G36*
X142751000Y-62785000D02*
G01*
X141299000Y-62785000D01*
X141299000Y-61333000D01*
X142751000Y-61333000D01*
X142751000Y-62785000D01*
G37*
M02*
