G04 #@! TF.GenerationSoftware,KiCad,Pcbnew,(5.1.6-0-10_14)*
G04 #@! TF.CreationDate,2020-10-20T16:11:55+02:00*
G04 #@! TF.ProjectId,ProStick64_PCB_v6,50726f53-7469-4636-9b36-345f5043425f,rev?*
G04 #@! TF.SameCoordinates,Original*
G04 #@! TF.FileFunction,Copper,L1,Top*
G04 #@! TF.FilePolarity,Positive*
%FSLAX46Y46*%
G04 Gerber Fmt 4.6, Leading zero omitted, Abs format (unit mm)*
G04 Created by KiCad (PCBNEW (5.1.6-0-10_14)) date 2020-10-20 16:11:55*
%MOMM*%
%LPD*%
G01*
G04 APERTURE LIST*
G04 #@! TA.AperFunction,SMDPad,CuDef*
%ADD10C,0.100000*%
G04 #@! TD*
G04 #@! TA.AperFunction,ComponentPad*
%ADD11R,1.700000X1.700000*%
G04 #@! TD*
G04 #@! TA.AperFunction,ComponentPad*
%ADD12O,1.700000X1.700000*%
G04 #@! TD*
G04 #@! TA.AperFunction,ComponentPad*
%ADD13C,1.650000*%
G04 #@! TD*
G04 #@! TA.AperFunction,ComponentPad*
%ADD14C,2.400000*%
G04 #@! TD*
G04 #@! TA.AperFunction,ComponentPad*
%ADD15R,1.350000X1.350000*%
G04 #@! TD*
G04 #@! TA.AperFunction,ComponentPad*
%ADD16O,1.350000X1.350000*%
G04 #@! TD*
G04 #@! TA.AperFunction,ViaPad*
%ADD17C,1.000000*%
G04 #@! TD*
G04 #@! TA.AperFunction,ViaPad*
%ADD18C,0.600000*%
G04 #@! TD*
G04 #@! TA.AperFunction,Conductor*
%ADD19C,0.250000*%
G04 #@! TD*
G04 APERTURE END LIST*
G04 #@! TA.AperFunction,SMDPad,CuDef*
D10*
G36*
X133403985Y-84464645D02*
G01*
X133050432Y-84111092D01*
X133050858Y-84110666D01*
X133033509Y-84093318D01*
X133002382Y-84055388D01*
X132975121Y-84014590D01*
X132951991Y-83971316D01*
X132933213Y-83925984D01*
X132918970Y-83879029D01*
X132909397Y-83830904D01*
X132904588Y-83782073D01*
X132904588Y-83733004D01*
X132909397Y-83684174D01*
X132918970Y-83636049D01*
X132933213Y-83589094D01*
X132951991Y-83543761D01*
X132975121Y-83500487D01*
X133002382Y-83459689D01*
X133033509Y-83421759D01*
X133050858Y-83404411D01*
X133050432Y-83403985D01*
X133403985Y-83050432D01*
X133404411Y-83050858D01*
X133421759Y-83033509D01*
X133459689Y-83002382D01*
X133500487Y-82975121D01*
X133543761Y-82951991D01*
X133589094Y-82933213D01*
X133636049Y-82918970D01*
X133684174Y-82909397D01*
X133733004Y-82904588D01*
X133782073Y-82904588D01*
X133830904Y-82909397D01*
X133879029Y-82918970D01*
X133925984Y-82933213D01*
X133971316Y-82951991D01*
X134014590Y-82975121D01*
X134055388Y-83002382D01*
X134093318Y-83033509D01*
X134110666Y-83050858D01*
X134111092Y-83050432D01*
X134464645Y-83403985D01*
X133403985Y-84464645D01*
G37*
G04 #@! TD.AperFunction*
G04 #@! TA.AperFunction,SMDPad,CuDef*
G36*
X135029904Y-83970096D02*
G01*
X135047253Y-83987444D01*
X135078380Y-84025374D01*
X135105641Y-84066172D01*
X135128771Y-84109446D01*
X135147549Y-84154778D01*
X135161792Y-84201733D01*
X135171365Y-84249858D01*
X135176174Y-84298689D01*
X135176174Y-84347758D01*
X135171365Y-84396588D01*
X135161792Y-84444713D01*
X135147549Y-84491668D01*
X135128771Y-84537001D01*
X135105641Y-84580275D01*
X135078380Y-84621073D01*
X135047253Y-84659003D01*
X135029904Y-84676351D01*
X135030330Y-84676777D01*
X134676777Y-85030330D01*
X134676351Y-85029904D01*
X134659003Y-85047253D01*
X134621073Y-85078380D01*
X134580275Y-85105641D01*
X134537001Y-85128771D01*
X134491668Y-85147549D01*
X134444713Y-85161792D01*
X134396588Y-85171365D01*
X134347758Y-85176174D01*
X134298689Y-85176174D01*
X134249858Y-85171365D01*
X134201733Y-85161792D01*
X134154778Y-85147549D01*
X134109446Y-85128771D01*
X134066172Y-85105641D01*
X134025374Y-85078380D01*
X133987444Y-85047253D01*
X133970096Y-85029904D01*
X133969670Y-85030330D01*
X133616117Y-84676777D01*
X134676777Y-83616117D01*
X135030330Y-83969670D01*
X135029904Y-83970096D01*
G37*
G04 #@! TD.AperFunction*
D11*
X133000000Y-67500000D03*
D12*
X133000000Y-70040000D03*
X133000000Y-72580000D03*
X133000000Y-75120000D03*
X133000000Y-77660000D03*
X133000000Y-80200000D03*
D13*
X155775000Y-77559000D03*
X143525000Y-65309000D03*
X155775000Y-75059000D03*
X146025000Y-65309000D03*
X155775000Y-72559000D03*
X148525000Y-65309000D03*
D14*
X138275000Y-68409000D03*
X138275000Y-81709000D03*
X153775000Y-81709000D03*
X153775000Y-68409000D03*
D11*
X159800000Y-81700000D03*
D12*
X159800000Y-79160000D03*
X159800000Y-76620000D03*
D15*
X142025000Y-62059000D03*
D16*
X140025000Y-62059000D03*
X138025000Y-62059000D03*
X136025000Y-62059000D03*
X134025000Y-62059000D03*
X132025000Y-62059000D03*
D17*
X152960000Y-73859000D03*
D18*
X149400000Y-76800000D03*
X149200000Y-84500000D03*
X141000000Y-85000000D03*
X153300000Y-83800000D03*
X137500000Y-79000000D03*
X137200000Y-70500000D03*
X138400000Y-74380001D03*
X132500000Y-83000000D03*
X153725000Y-79259000D03*
X142200000Y-80700000D03*
X155125000Y-79259000D03*
X145000000Y-79500000D03*
X135500000Y-85000000D03*
X143000000Y-82000000D03*
X146000000Y-82000000D03*
D19*
X137200000Y-73180001D02*
X137200000Y-70500000D01*
X138400000Y-74380001D02*
X137200000Y-73180001D01*
X133080762Y-83580762D02*
X132500000Y-83000000D01*
X133580762Y-83580762D02*
X133080762Y-83580762D01*
X153725000Y-79259000D02*
X154525000Y-80059000D01*
X154525000Y-80059000D02*
X156625000Y-80059000D01*
X156625000Y-80059000D02*
X158125000Y-78559000D01*
X158125000Y-78559000D02*
X158125000Y-74659000D01*
X158125000Y-74659000D02*
X159825000Y-72959000D01*
X159825000Y-72959000D02*
X159825000Y-64659000D01*
X142950000Y-62059000D02*
X142025000Y-62059000D01*
X143400010Y-61608990D02*
X142950000Y-62059000D01*
X156774990Y-61608990D02*
X143400010Y-61608990D01*
X159825000Y-64659000D02*
X156774990Y-61608990D01*
X146741000Y-79259000D02*
X153725000Y-79259000D01*
X145300000Y-80700000D02*
X146741000Y-79259000D01*
X142200000Y-80700000D02*
X145300000Y-80700000D01*
X155125000Y-79259000D02*
X156425000Y-79259000D01*
X156425000Y-79259000D02*
X157425000Y-78259000D01*
X157425000Y-78259000D02*
X157425000Y-74259000D01*
X157425000Y-74259000D02*
X159225000Y-72459000D01*
X159225000Y-72459000D02*
X159225000Y-64959000D01*
X159225000Y-64959000D02*
X156325000Y-62059000D01*
X156325000Y-62059000D02*
X144425000Y-62059000D01*
X144425000Y-62059000D02*
X143025000Y-63459000D01*
X141425000Y-63459000D02*
X140025000Y-62059000D01*
X143025000Y-63459000D02*
X141425000Y-63459000D01*
X154499999Y-78633999D02*
X155125000Y-79259000D01*
X145866001Y-78633999D02*
X154499999Y-78633999D01*
X145000000Y-79500000D02*
X145866001Y-78633999D01*
X135000000Y-85000000D02*
X134500000Y-84500000D01*
X135500000Y-85000000D02*
X135000000Y-85000000D01*
X143000000Y-82000000D02*
X146000000Y-82000000D01*
M02*
