M48
; DRILL file {KiCad (5.1.6-0-10_14)} date Tuesday, October 20, 2020 at 04:11:49 PM
; FORMAT={-:-/ absolute / inch / decimal}
; #@! TF.CreationDate,2020-10-20T16:11:49+02:00
; #@! TF.GenerationSoftware,Kicad,Pcbnew,(5.1.6-0-10_14)
FMAT,2
INCH
T1C0.0118
T2C0.0197
T3C0.0315
T4C0.0394
T5C0.0433
T6C0.0630
%
G90
G05
T1
X5.2165Y-3.2677
X5.3346Y-3.3465
X5.4016Y-2.7756
X5.4134Y-3.1102
X5.4488Y-2.9283
X5.5512Y-3.3465
X5.5984Y-3.1772
X5.6299Y-3.2283
X5.7087Y-3.1299
X5.748Y-3.2283
X5.874Y-3.3268
X5.8819Y-3.0236
X6.0354Y-3.2992
X6.0522Y-3.1204
X6.1073Y-3.1204
T2
X6.022Y-2.9078
T3
X5.1978Y-2.4433
X5.2766Y-2.4433
X5.3553Y-2.4433
X5.4341Y-2.4433
X5.5128Y-2.4433
X5.5915Y-2.4433
T4
X5.2362Y-2.6575
X5.2362Y-2.7575
X5.2362Y-2.8575
X5.2362Y-2.9575
X5.2362Y-3.0575
X5.2362Y-3.1575
X6.2913Y-3.0165
X6.2913Y-3.1165
X6.2913Y-3.2165
T5
X5.6506Y-2.5712
X5.749Y-2.5712
X5.8474Y-2.5712
X6.1329Y-2.8567
X6.1329Y-2.9551
X6.1329Y-3.0535
T6
X5.4439Y-2.6933
X5.4439Y-3.2169
X6.0541Y-2.6933
X6.0541Y-3.2169
T0
M30
